<svg width="28" height="30" viewBox="0 0 28 30" fill="none" xmlns="http://www.w3.org/2000/svg">
<g clip-path="url(#clip0)">
<path d="M5.14062 8.34515H6.23438V9.5042C6.23438 9.98428 6.60166 10.3735 7.05469 10.3735C7.50772 10.3735 7.875 9.98428 7.875 9.5042V8.34515H8.96875C9.42178 8.34515 9.78906 7.95595 9.78906 7.47587C9.78906 6.99579 9.42178 6.60658 8.96875 6.60658H7.875V5.44753C7.875 4.96746 7.50772 4.57825 7.05469 4.57825C6.60166 4.57825 6.23438 4.96746 6.23438 5.44753V6.60658H5.14062C4.68759 6.60658 4.32031 6.99579 4.32031 7.47587C4.32031 7.95595 4.68759 8.34515 5.14062 8.34515Z" fill="white"/>
<path d="M17.8828 8.34514H21.1641C21.6171 8.34514 21.9844 7.95593 21.9844 7.47585C21.9844 6.99578 21.6171 6.60657 21.1641 6.60657H17.8828C17.4298 6.60657 17.0625 6.99578 17.0625 7.47585C17.0625 7.95593 17.4298 8.34514 17.8828 8.34514Z" fill="white"/>
<path d="M21.4375 21.2686H17.6094C17.1563 21.2686 16.7891 21.6578 16.7891 22.1378C16.7891 22.6179 17.1563 23.0071 17.6094 23.0071H21.4375C21.8905 23.0071 22.2578 22.6179 22.2578 22.1378C22.2578 21.6578 21.8905 21.2686 21.4375 21.2686Z" fill="white"/>
<path d="M21.4375 18.3709H17.6094C17.1563 18.3709 16.7891 18.7601 16.7891 19.2402C16.7891 19.7203 17.1563 20.1095 17.6094 20.1095H21.4375C21.8905 20.1095 22.2578 19.7203 22.2578 19.2402C22.2578 18.7601 21.8905 18.3709 21.4375 18.3709Z" fill="white"/>
<path d="M9.00191 18.6256C8.68161 18.2861 8.16219 18.2861 7.84183 18.6256L7.05471 19.4597L6.26754 18.6255C5.94724 18.286 5.42782 18.286 5.10746 18.6255C4.7871 18.965 4.7871 19.5154 5.10746 19.8548L5.89463 20.689L5.10746 21.5232C4.7871 21.8627 4.7871 22.413 5.10746 22.7525C5.26764 22.9223 5.47758 23.0071 5.68753 23.0071C5.89747 23.0071 6.10742 22.9223 6.26754 22.7525L7.05471 21.9184L7.84188 22.7525C8.00201 22.9223 8.21195 23.0071 8.4219 23.0071C8.63184 23.0071 8.84179 22.9223 9.00191 22.7525C9.32227 22.413 9.32227 21.8626 9.00191 21.5231L8.2148 20.689L9.00197 19.8548C9.32232 19.5154 9.32233 18.965 9.00191 18.6256Z" fill="white"/>
<path d="M26.5781 15.7149V2.60786C26.5781 1.16989 25.4741 0 24.1172 0H2.46094C1.10398 0 0 1.16989 0 2.60786V25.557C0 26.995 1.10398 28.1649 2.46094 28.1649H14.8295C16.1743 29.1162 17.7887 29.6716 19.5234 29.6716C24.1975 29.6716 28 25.642 28 20.689C28 18.8508 27.4759 17.14 26.5781 15.7149ZM24.9375 2.60786V13.7828C23.468 12.487 21.5802 11.7064 19.5234 11.7064C17.4667 11.7064 15.5789 12.487 14.1094 13.7828V1.73857H24.1172C24.5695 1.73857 24.9375 2.12853 24.9375 2.60786ZM2.46094 1.73857H12.4688V13.2132H1.64062V2.60786C1.64062 2.12853 2.00862 1.73857 2.46094 1.73857ZM1.64062 25.557V14.9517H12.4688V15.7149C11.571 17.14 11.0469 18.8508 11.0469 20.689C11.0469 22.8685 11.7835 24.8691 13.0063 26.4263H2.46094C2.00862 26.4263 1.64062 26.0363 1.64062 25.557ZM19.5234 27.9331C15.7541 27.9331 12.6875 24.6834 12.6875 20.689C12.6875 16.6946 15.7541 13.445 19.5234 13.445C23.2928 13.445 26.3594 16.6946 26.3594 20.689C26.3594 24.6834 23.2928 27.9331 19.5234 27.9331Z" fill="white"/>
</g>
<defs>
<clipPath id="clip0">
<rect width="28" height="29.6716" fill="white"/>
</clipPath>
</defs>
</svg>
