<svg width="22" height="22" viewBox="0 0 22 22" fill="none" xmlns="http://www.w3.org/2000/svg">
<g clip-path="url(#clip0)">
<path d="M16.0463 13.1147L16.038 13.1835C14.0223 12.1788 13.8114 12.045 13.5511 12.4355C13.3705 12.7059 12.8443 13.3192 12.6858 13.5007C12.5253 13.6794 12.3658 13.6932 12.0936 13.5694C11.8186 13.4319 10.9358 13.1432 9.89084 12.2082C9.07684 11.4794 8.53051 10.5857 8.36917 10.3107C8.10059 9.84683 8.66251 9.78083 9.17401 8.81283C9.26567 8.62033 9.21892 8.46908 9.15109 8.33249C9.08234 8.19499 8.53509 6.84749 8.30592 6.31033C8.08592 5.77499 7.85951 5.84283 7.68992 5.84283C7.16192 5.79699 6.77601 5.80433 6.43592 6.15816C4.95642 7.78433 5.32951 9.46183 6.59542 11.2457C9.08326 14.5017 10.4088 15.1012 12.8324 15.9335C13.4869 16.1416 14.0837 16.1122 14.5558 16.0444C15.0819 15.961 16.1755 15.3835 16.4038 14.7372C16.6375 14.091 16.6375 13.5547 16.5688 13.431C16.5009 13.3072 16.3213 13.2385 16.0463 13.1147Z" fill="white"/>
<path d="M18.81 3.16076C11.7618 -3.65282 0.0971667 1.28892 0.0925833 10.9011C0.0925833 12.8224 0.595833 14.6961 1.55467 16.3507L0 21.9992L5.80708 20.4848C13.0533 24.399 21.9963 19.2015 22 10.9066C22 7.99525 20.8633 5.25534 18.7962 3.19651L18.81 3.16076ZM20.1685 10.8763C20.163 17.8732 12.4823 22.243 6.4075 18.6717L6.0775 18.4755L2.64 19.3692L3.56125 16.028L3.34217 15.6842C-0.438167 9.66634 3.905 1.80134 11.066 1.80134C13.4988 1.80134 15.7823 2.75009 17.5019 4.46884C19.2207 6.17292 20.1685 8.45634 20.1685 10.8763Z" fill="white"/>
</g>
<defs>
<clipPath id="clip0">
<rect width="22" height="22" fill="white"/>
</clipPath>
</defs>
</svg>
