<svg width="20" height="20" viewBox="0 0 20 20" fill="none" xmlns="http://www.w3.org/2000/svg">
<g clip-path="url(#clip0)">
<path d="M19.998 16.1158C19.9701 15.3421 19.6479 14.6202 19.0907 14.0829C17.9996 13.0308 17.0855 12.4234 16.2138 12.1716C15.0128 11.8245 13.9003 12.1401 12.9075 13.1097C12.906 13.1111 12.9046 13.1126 12.9031 13.1141L11.8468 14.1625C11.1867 13.7904 9.90312 12.9733 8.51632 11.5865L8.41351 11.4838C7.02648 10.0968 6.20948 8.81298 5.83773 8.1536L6.88616 7.09731C6.88765 7.09583 6.88913 7.09434 6.89062 7.09282C7.86019 6.10009 8.17581 4.98766 7.82874 3.78653C7.57683 2.91493 6.96952 2.00079 5.91741 0.909735C5.38015 0.352587 4.65823 0.0303209 3.8846 0.00243028C3.1105 -0.0254994 2.36769 0.243954 1.79159 0.761063L1.76917 0.781219C1.75878 0.790555 1.74862 0.800204 1.7387 0.810087C0.591867 1.95692 -0.00930517 3.56243 0.00010889 5.45309C0.0161636 8.66489 1.78136 12.3379 4.72194 15.2784C5.27644 15.8329 5.90663 16.3816 6.59499 16.9095C6.93737 17.172 7.42776 17.1073 7.6903 16.7649C7.95288 16.4224 7.88812 15.932 7.54569 15.6695C6.91152 15.1832 6.33319 14.6799 5.82679 14.1736C3.17069 11.5175 1.57659 8.25466 1.56257 5.44532C1.55534 3.98923 1.99335 2.77388 2.82941 1.92911L2.83538 1.92372C3.40323 1.41399 4.26296 1.44501 4.79273 1.99434C6.81534 4.09192 6.6689 5.0822 5.77515 5.99868L4.32694 7.45774C4.09984 7.68657 4.03659 8.03141 4.16773 8.32595C4.20448 8.40852 5.0939 10.3739 7.30894 12.5889L7.41179 12.6916C9.62655 14.9064 11.5919 15.7958 11.6745 15.8325C11.969 15.9638 12.3139 15.9005 12.5427 15.6734L14.0018 14.2251C14.9184 13.3313 15.9087 13.185 18.0061 15.2076C18.5555 15.7373 18.5865 16.597 18.0769 17.1648L18.0713 17.1709C17.2335 18.0002 16.031 18.4379 14.5908 18.4379C14.5789 18.4379 14.5671 18.4379 14.5551 18.4378C13.4039 18.432 12.0709 18.1165 10.7001 17.5252C10.304 17.3543 9.84421 17.5369 9.67335 17.9331C9.50245 18.3293 9.68507 18.789 10.0813 18.9599C11.6657 19.6434 13.1683 19.9934 14.5474 20.0003C14.562 20.0003 14.5766 20.0004 14.5912 20.0004C16.4628 20.0004 18.0524 19.3996 19.1904 18.2617C19.2003 18.2518 19.2099 18.2416 19.2192 18.2312L19.2395 18.2087C19.7566 17.6326 20.026 16.8893 19.998 16.1158Z" fill="white"/>
</g>
<defs>
<clipPath id="clip0">
<rect width="20" height="20" fill="white"/>
</clipPath>
</defs>
</svg>
