<svg width="17" height="17" viewBox="0 0 17 17" fill="none" xmlns="http://www.w3.org/2000/svg">
<path d="M16.2576 1.10653C15.4905 0.693457 14.6348 1.49009 14.1332 1.96217C12.9826 3.08335 12.0089 4.38157 10.9172 5.56176C9.70753 6.85998 8.58634 8.1582 7.34714 9.42695C6.63903 10.1351 5.87191 10.9022 5.39983 11.7873C4.33766 10.7546 3.42301 9.63344 2.24282 8.71884C1.38718 8.06973 -0.029051 7.59765 0.000453758 9.16141C0.0594633 11.1973 1.85926 13.3807 3.18697 14.7673C3.74756 15.3574 4.48518 15.977 5.34082 16.0065C6.37349 16.0656 7.43566 14.8263 8.05526 14.1477C9.14698 12.9675 10.0321 11.6398 11.0352 10.4301C12.3335 8.83686 13.6612 7.27305 14.9299 5.65028C15.7265 4.64711 18.2344 2.16865 16.2576 1.10653ZM1.29862 9.04339C1.26911 9.04339 1.23961 9.04339 1.1806 9.07285C1.06258 9.04339 0.974063 9.01384 0.856044 8.95483C0.944559 8.89582 1.09208 8.92532 1.29862 9.04339Z" fill="url(#paint0_linear)"/>
<defs>
<linearGradient id="paint0_linear" x1="0.475999" y1="10.9352" x2="15.5763" y2="10.8441" gradientUnits="userSpaceOnUse">
<stop stop-color="#EE0979"/>
<stop offset="1" stop-color="#FF6A00"/>
</linearGradient>
</defs>
</svg>
