<svg width="19" height="15" viewBox="0 0 19 15" fill="none" xmlns="http://www.w3.org/2000/svg">
<path d="M17.3048 14.9643C17.7319 14.9643 18.102 14.8233 18.4166 14.5448L13.0336 9.1616C12.9044 9.25409 12.7792 9.34402 12.661 9.42953C12.2581 9.72633 11.9312 9.95794 11.6801 10.1239C11.4291 10.2902 11.0951 10.4598 10.6782 10.6329C10.261 10.8062 9.87236 10.8926 9.51181 10.8926H9.50126H9.4907C9.13012 10.8926 8.74146 10.8062 8.3243 10.6329C7.90714 10.4598 7.57316 10.2902 7.32238 10.1239C7.07135 9.95794 6.74457 9.72637 6.34153 9.42953C6.22921 9.34719 6.10465 9.25685 5.96998 9.16016L0.585938 14.5448C0.900503 14.8233 1.27081 14.9643 1.69787 14.9643H17.3048Z" fill="url(#paint0_linear)"/>
<path d="M1.07098 5.77182C0.66818 5.50328 0.310978 5.19571 0 4.84927V13.0394L4.74456 8.29483C3.79538 7.63217 2.57241 6.79213 1.07098 5.77182Z" fill="url(#paint1_linear)"/>
<path d="M17.9402 5.77182C16.4961 6.74929 15.2686 7.59078 14.2578 8.29673L19.0005 13.0396V4.84927C18.6964 5.18874 18.343 5.4961 17.9402 5.77182Z" fill="url(#paint2_linear)"/>
<path d="M17.3032 0.035675H1.69632C1.15184 0.035675 0.733238 0.219536 0.439991 0.58688C0.146503 0.954396 0 1.41402 0 1.96522C0 2.41045 0.194417 2.89288 0.583079 3.41262C0.971741 3.93216 1.38531 4.34024 1.82358 4.63708C2.06384 4.80683 2.78838 5.31053 3.99721 6.14802C4.64977 6.60022 5.21725 6.99437 5.70492 7.33449C6.12059 7.62412 6.47907 7.87493 6.77504 8.08308C6.80902 8.10692 6.86245 8.14514 6.93337 8.19585C7.00978 8.25073 7.10647 8.32038 7.22576 8.40651C7.45547 8.57264 7.6463 8.70693 7.79828 8.80952C7.95006 8.91215 8.13396 9.02678 8.34969 9.15407C8.56526 9.28118 8.76857 9.37677 8.9594 9.44034C9.15027 9.50389 9.32695 9.53576 9.4895 9.53576H9.50005H9.51061C9.67312 9.53576 9.84984 9.50389 10.0407 9.44034C10.2315 9.37677 10.4347 9.28139 10.6504 9.15407C10.8659 9.02678 11.0496 8.91191 11.2019 8.80952C11.3538 8.70693 11.5447 8.57268 11.7744 8.40651C11.8935 8.32038 11.9902 8.2507 12.0666 8.19602C12.1375 8.1451 12.1909 8.10712 12.2251 8.08308C12.4557 7.92264 12.815 7.67286 13.2981 7.33742C14.1771 6.72668 15.4716 5.82776 17.1872 4.63708C17.7031 4.2767 18.1342 3.84181 18.4806 3.33304C18.8264 2.82426 18.9998 2.29058 18.9998 1.73217C18.9998 1.26562 18.8317 0.866398 18.4962 0.533895C18.1604 0.201806 17.7627 0.035675 17.3032 0.035675Z" fill="url(#paint3_linear)"/>
<defs>
<linearGradient id="paint0_linear" x1="9.51667" y1="14.466" x2="9.51667" y2="9.13084" gradientUnits="userSpaceOnUse">
<stop stop-color="#EF0F72"/>
<stop offset="1" stop-color="#FE6604"/>
</linearGradient>
<linearGradient id="paint1_linear" x1="2.37638" y1="12.3362" x2="2.37638" y2="4.80791" gradientUnits="userSpaceOnUse">
<stop stop-color="#EF0F72"/>
<stop offset="1" stop-color="#FE6604"/>
</linearGradient>
<linearGradient id="paint2_linear" x1="16.6332" y1="12.3364" x2="16.6332" y2="4.80791" gradientUnits="userSpaceOnUse">
<stop stop-color="#EF0F72"/>
<stop offset="1" stop-color="#FE6604"/>
</linearGradient>
<linearGradient id="paint3_linear" x1="9.51632" y1="8.7201" x2="9.51632" y2="-0.0123054" gradientUnits="userSpaceOnUse">
<stop stop-color="#EF0F72"/>
<stop offset="1" stop-color="#FE6604"/>
</linearGradient>
</defs>
</svg>
