<svg width="16" height="20" viewBox="0 0 16 20" fill="none" xmlns="http://www.w3.org/2000/svg">
<path d="M8.00076 0C4.00682 0 0.757523 3.2493 0.757523 7.2432C0.757523 12.1998 7.23951 19.4763 7.51549 19.7836C7.77471 20.0723 8.22729 20.0718 8.48604 19.7836C8.76202 19.4763 15.244 12.1998 15.244 7.2432C15.2439 3.2493 11.9947 0 8.00076 0ZM8.00076 10.8875C5.99131 10.8875 4.35655 9.25266 4.35655 7.2432C4.35655 5.23375 5.99135 3.59898 8.00076 3.59898C10.0102 3.59898 11.6449 5.23379 11.6449 7.24324C11.6449 9.25269 10.0102 10.8875 8.00076 10.8875Z" fill="url(#paint0_linear)"/>
<defs>
<linearGradient id="paint0_linear" x1="8.01329" y1="18.2828" x2="8.01329" y2="-0.10101" gradientUnits="userSpaceOnUse">
<stop stop-color="#EF0F72"/>
<stop offset="1" stop-color="#FE6604"/>
</linearGradient>
</defs>
</svg>
