<svg width="149" height="44" viewBox="0 0 149 44" fill="none" xmlns="http://www.w3.org/2000/svg">
<path fill-rule="evenodd" clip-rule="evenodd" d="M38.6623 10.4509L21.5806 0.602033C20.1884 -0.200678 18.4739 -0.200677 17.0817 0.602033L0 10.4509V30.1409C0 31.7508 0.85933 33.2382 2.25396 34.0423L19.3311 43.8886L36.4083 34.0423C37.8029 33.2382 38.6623 31.7508 38.6623 30.1409V10.4509ZM38.6623 10.4509L19.3311 43.8886L0 10.4509L17.1046 20.114C18.4784 20.8902 20.1582 20.8907 21.5325 20.1153L38.6623 10.4509Z" fill="url(#paint0_linear)"/>
<path d="M62.8703 35.11V37.725H62.2653V35.615H61.3003V37.725H60.6953V35.11H62.8703Z" fill="#838383"/>
<path d="M65.3746 36.43C65.3746 36.16 65.313 35.95 65.1896 35.8C65.0696 35.65 64.8746 35.575 64.6046 35.575C64.548 35.575 64.488 35.5783 64.4246 35.585C64.3646 35.5883 64.3046 35.5983 64.2446 35.615V37.11C64.298 37.1467 64.368 37.1817 64.4546 37.215C64.5446 37.245 64.6396 37.26 64.7396 37.26C64.9596 37.26 65.1196 37.185 65.2196 37.035C65.323 36.885 65.3746 36.6833 65.3746 36.43ZM65.9946 36.42C65.9946 36.62 65.968 36.8033 65.9146 36.97C65.8646 37.1367 65.7913 37.28 65.6946 37.4C65.598 37.52 65.4763 37.6133 65.3296 37.68C65.1863 37.7467 65.023 37.78 64.8396 37.78C64.7163 37.78 64.603 37.765 64.4996 37.735C64.3963 37.705 64.3113 37.6717 64.2446 37.635V38.65H63.6396V35.195C63.763 35.1617 63.9146 35.13 64.0946 35.1C64.2746 35.07 64.4646 35.055 64.6646 35.055C64.8713 35.055 65.0563 35.0867 65.2196 35.15C65.383 35.2133 65.5213 35.305 65.6346 35.425C65.7513 35.5417 65.8396 35.685 65.8996 35.855C65.963 36.0217 65.9946 36.21 65.9946 36.42Z" fill="#838383"/>
<path d="M68.9832 36.415C68.9832 36.6217 68.9532 36.81 68.8932 36.98C68.8332 37.15 68.7482 37.295 68.6382 37.415C68.5282 37.535 68.3948 37.6283 68.2382 37.695C68.0848 37.7617 67.9148 37.795 67.7282 37.795C67.5415 37.795 67.3715 37.7617 67.2182 37.695C67.0648 37.6283 66.9332 37.535 66.8232 37.415C66.7132 37.295 66.6265 37.15 66.5632 36.98C66.5032 36.81 66.4732 36.6217 66.4732 36.415C66.4732 36.2083 66.5032 36.0217 66.5632 35.855C66.6265 35.685 66.7132 35.54 66.8232 35.42C66.9365 35.3 67.0698 35.2083 67.2232 35.145C67.3765 35.0783 67.5448 35.045 67.7282 35.045C67.9115 35.045 68.0798 35.0783 68.2332 35.145C68.3898 35.2083 68.5232 35.3 68.6332 35.42C68.7432 35.54 68.8282 35.685 68.8882 35.855C68.9515 36.0217 68.9832 36.2083 68.9832 36.415ZM68.3632 36.415C68.3632 36.155 68.3065 35.95 68.1932 35.8C68.0832 35.6467 67.9282 35.57 67.7282 35.57C67.5282 35.57 67.3715 35.6467 67.2582 35.8C67.1482 35.95 67.0932 36.155 67.0932 36.415C67.0932 36.6783 67.1482 36.8867 67.2582 37.04C67.3715 37.1933 67.5282 37.27 67.7282 37.27C67.9282 37.27 68.0832 37.1933 68.1932 37.04C68.3065 36.8867 68.3632 36.6783 68.3632 36.415Z" fill="#838383"/>
<path d="M71.8964 35.11V37.725H71.2964C71.2964 37.535 71.2964 37.3467 71.2964 37.16C71.2998 36.9733 71.3014 36.8 71.3014 36.64C71.3048 36.48 71.3064 36.3417 71.3064 36.225C71.3098 36.105 71.3114 36.0167 71.3114 35.96C71.2114 36.09 71.1081 36.2333 71.0014 36.39C70.8948 36.5467 70.7881 36.7033 70.6814 36.86C70.5781 37.0167 70.4798 37.17 70.3864 37.32C70.2931 37.47 70.2114 37.605 70.1414 37.725H69.6064V35.11H70.2014C70.2014 35.3033 70.1998 35.4883 70.1964 35.665C70.1964 35.8383 70.1964 35.9967 70.1964 36.14C70.1964 36.2833 70.1948 36.4083 70.1914 36.515C70.1914 36.6217 70.1914 36.7033 70.1914 36.76C70.2848 36.6167 70.3814 36.47 70.4814 36.32C70.5814 36.1667 70.6814 36.0183 70.7814 35.875C70.8848 35.7283 70.9864 35.59 71.0864 35.46C71.1864 35.33 71.2831 35.2133 71.3764 35.11H71.8964Z" fill="#838383"/>
<path d="M72.553 35.19C72.5963 35.1733 72.6496 35.1567 72.713 35.14C72.7763 35.1233 72.8446 35.1083 72.918 35.095C72.9913 35.0817 73.068 35.0717 73.148 35.065C73.2313 35.055 73.3146 35.05 73.398 35.05C73.5413 35.05 73.678 35.0633 73.808 35.09C73.938 35.1167 74.0513 35.16 74.148 35.22C74.2446 35.28 74.3213 35.3567 74.378 35.45C74.438 35.5433 74.468 35.655 74.468 35.785C74.468 35.925 74.4296 36.0433 74.353 36.14C74.2763 36.2367 74.188 36.3083 74.088 36.355C74.238 36.4117 74.353 36.495 74.433 36.605C74.513 36.715 74.553 36.855 74.553 37.025C74.553 37.1617 74.523 37.2783 74.463 37.375C74.4063 37.4717 74.3263 37.5517 74.223 37.615C74.123 37.675 74.0046 37.7183 73.868 37.745C73.7313 37.775 73.583 37.79 73.423 37.79C73.2296 37.79 73.0496 37.7733 72.883 37.74C72.7163 37.71 72.5846 37.6733 72.488 37.63L72.593 37.14C72.6563 37.1667 72.758 37.1983 72.898 37.235C73.038 37.2683 73.203 37.285 73.393 37.285C73.7596 37.285 73.943 37.1783 73.943 36.965C73.943 36.8883 73.9263 36.8267 73.893 36.78C73.8596 36.7333 73.818 36.6983 73.768 36.675C73.718 36.6483 73.6613 36.6317 73.598 36.625C73.5346 36.615 73.473 36.61 73.413 36.61H72.913V36.16H73.408C73.5313 36.16 73.6363 36.1383 73.723 36.095C73.813 36.0483 73.858 35.9683 73.858 35.855C73.858 35.7617 73.8146 35.6883 73.728 35.635C73.6446 35.5783 73.5263 35.55 73.373 35.55C73.3063 35.55 73.238 35.555 73.168 35.565C73.098 35.5717 73.0296 35.5817 72.963 35.595C72.8996 35.6083 72.8413 35.6233 72.788 35.64C72.7346 35.6533 72.693 35.6667 72.663 35.68L72.553 35.19Z" fill="#838383"/>
<path d="M76.208 37.775C76.1113 37.775 76.013 37.7717 75.913 37.765C75.813 37.7583 75.7163 37.75 75.623 37.74C75.533 37.73 75.448 37.72 75.368 37.71C75.288 37.6967 75.2213 37.6833 75.168 37.67V35.145C75.2213 35.1317 75.288 35.12 75.368 35.11C75.448 35.0967 75.533 35.0867 75.623 35.08C75.7163 35.07 75.813 35.0633 75.913 35.06C76.013 35.0533 76.1113 35.05 76.208 35.05C76.5613 35.05 76.8363 35.115 77.033 35.245C77.2296 35.3717 77.328 35.55 77.328 35.78C77.328 35.9 77.298 36.0067 77.238 36.1C77.178 36.1933 77.0996 36.2633 77.003 36.31C77.123 36.3567 77.2263 36.43 77.313 36.53C77.3996 36.63 77.443 36.7717 77.443 36.955C77.443 37.2183 77.3396 37.4217 77.133 37.565C76.9263 37.705 76.618 37.775 76.208 37.775ZM76.223 36.16C76.373 36.16 76.4963 36.1383 76.593 36.095C76.693 36.0517 76.743 35.965 76.743 35.835C76.743 35.7717 76.7263 35.72 76.693 35.68C76.663 35.64 76.6213 35.6083 76.568 35.585C76.5146 35.5617 76.453 35.5467 76.383 35.54C76.313 35.53 76.2396 35.525 76.163 35.525C76.103 35.525 76.033 35.5267 75.953 35.53C75.8763 35.5333 75.8146 35.5383 75.768 35.545V36.16H76.223ZM75.768 37.275C75.808 37.2817 75.873 37.2883 75.963 37.295C76.0563 37.2983 76.143 37.3 76.223 37.3C76.403 37.3 76.5513 37.275 76.668 37.225C76.788 37.175 76.848 37.08 76.848 36.94C76.848 36.8033 76.793 36.71 76.683 36.66C76.5763 36.6067 76.4363 36.58 76.263 36.58H75.768V37.275Z" fill="#838383"/>
<path d="M80.3796 36.415C80.3796 36.6217 80.3496 36.81 80.2896 36.98C80.2296 37.15 80.1446 37.295 80.0346 37.415C79.9246 37.535 79.7913 37.6283 79.6346 37.695C79.4813 37.7617 79.3113 37.795 79.1246 37.795C78.938 37.795 78.768 37.7617 78.6146 37.695C78.4613 37.6283 78.3296 37.535 78.2196 37.415C78.1096 37.295 78.023 37.15 77.9596 36.98C77.8996 36.81 77.8696 36.6217 77.8696 36.415C77.8696 36.2083 77.8996 36.0217 77.9596 35.855C78.023 35.685 78.1096 35.54 78.2196 35.42C78.333 35.3 78.4663 35.2083 78.6196 35.145C78.773 35.0783 78.9413 35.045 79.1246 35.045C79.308 35.045 79.4763 35.0783 79.6296 35.145C79.7863 35.2083 79.9196 35.3 80.0296 35.42C80.1396 35.54 80.2246 35.685 80.2846 35.855C80.348 36.0217 80.3796 36.2083 80.3796 36.415ZM79.7596 36.415C79.7596 36.155 79.703 35.95 79.5896 35.8C79.4796 35.6467 79.3246 35.57 79.1246 35.57C78.9246 35.57 78.768 35.6467 78.6546 35.8C78.5446 35.95 78.4896 36.155 78.4896 36.415C78.4896 36.6783 78.5446 36.8867 78.6546 37.04C78.768 37.1933 78.9246 37.27 79.1246 37.27C79.3246 37.27 79.4796 37.1933 79.5896 37.04C79.703 36.8867 79.7596 36.6783 79.7596 36.415Z" fill="#838383"/>
<path d="M80.6829 37.23H80.9829C81.0863 37.0933 81.1663 36.9417 81.2229 36.775C81.2829 36.605 81.3263 36.4283 81.3529 36.245C81.3796 36.0583 81.3963 35.8683 81.4029 35.675C81.4096 35.4817 81.4146 35.2933 81.4179 35.11H83.2929V37.23H83.6929V38.465H83.1529V37.725H81.2179V38.465H80.6829V37.23ZM82.6879 37.23V35.61H81.9779C81.9713 35.7467 81.9629 35.8867 81.9529 36.03C81.9429 36.17 81.9246 36.31 81.8979 36.45C81.8713 36.5867 81.8346 36.7217 81.7879 36.855C81.7446 36.985 81.6863 37.11 81.6129 37.23H82.6879Z" fill="#838383"/>
<path d="M84.022 36.42C84.022 36.2267 84.052 36.0467 84.112 35.88C84.172 35.71 84.257 35.5633 84.367 35.44C84.4803 35.3167 84.617 35.22 84.777 35.15C84.937 35.08 85.117 35.045 85.317 35.045C85.5637 35.045 85.797 35.09 86.017 35.18L85.887 35.675C85.817 35.645 85.737 35.62 85.647 35.6C85.5603 35.58 85.467 35.57 85.367 35.57C85.1303 35.57 84.9503 35.645 84.827 35.795C84.7037 35.9417 84.642 36.15 84.642 36.42C84.642 36.68 84.7003 36.8867 84.817 37.04C84.9337 37.19 85.1303 37.265 85.407 37.265C85.5103 37.265 85.612 37.255 85.712 37.235C85.812 37.215 85.8987 37.19 85.972 37.16L86.057 37.66C85.9903 37.6933 85.8887 37.7233 85.752 37.75C85.6187 37.7767 85.4803 37.79 85.337 37.79C85.1137 37.79 84.9187 37.7567 84.752 37.69C84.5887 37.62 84.452 37.525 84.342 37.405C84.2353 37.2817 84.1553 37.1367 84.102 36.97C84.0487 36.8 84.022 36.6167 84.022 36.42Z" fill="#838383"/>
<path d="M88.5589 35.615H87.7139V37.725H87.1089V35.615H86.2689V35.11H88.5589V35.615Z" fill="#838383"/>
<path d="M90.0507 37.775C89.9541 37.775 89.8557 37.7717 89.7557 37.765C89.6557 37.7583 89.5591 37.75 89.4657 37.74C89.3757 37.73 89.2907 37.72 89.2107 37.71C89.1307 37.6967 89.0641 37.6833 89.0107 37.67V35.145C89.0641 35.1317 89.1307 35.12 89.2107 35.11C89.2907 35.0967 89.3757 35.0867 89.4657 35.08C89.5591 35.07 89.6557 35.0633 89.7557 35.06C89.8557 35.0533 89.9541 35.05 90.0507 35.05C90.4041 35.05 90.6791 35.115 90.8757 35.245C91.0724 35.3717 91.1707 35.55 91.1707 35.78C91.1707 35.9 91.1407 36.0067 91.0807 36.1C91.0207 36.1933 90.9424 36.2633 90.8457 36.31C90.9657 36.3567 91.0691 36.43 91.1557 36.53C91.2424 36.63 91.2857 36.7717 91.2857 36.955C91.2857 37.2183 91.1824 37.4217 90.9757 37.565C90.7691 37.705 90.4607 37.775 90.0507 37.775ZM90.0657 36.16C90.2157 36.16 90.3391 36.1383 90.4357 36.095C90.5357 36.0517 90.5857 35.965 90.5857 35.835C90.5857 35.7717 90.5691 35.72 90.5357 35.68C90.5057 35.64 90.4641 35.6083 90.4107 35.585C90.3574 35.5617 90.2957 35.5467 90.2257 35.54C90.1557 35.53 90.0824 35.525 90.0057 35.525C89.9457 35.525 89.8757 35.5267 89.7957 35.53C89.7191 35.5333 89.6574 35.5383 89.6107 35.545V36.16H90.0657ZM89.6107 37.275C89.6507 37.2817 89.7157 37.2883 89.8057 37.295C89.8991 37.2983 89.9857 37.3 90.0657 37.3C90.2457 37.3 90.3941 37.275 90.5107 37.225C90.6307 37.175 90.6907 37.08 90.6907 36.94C90.6907 36.8033 90.6357 36.71 90.5257 36.66C90.4191 36.6067 90.2791 36.58 90.1057 36.58H89.6107V37.275Z" fill="#838383"/>
<path d="M94.2224 36.415C94.2224 36.6217 94.1924 36.81 94.1324 36.98C94.0724 37.15 93.9874 37.295 93.8774 37.415C93.7674 37.535 93.6341 37.6283 93.4774 37.695C93.3241 37.7617 93.1541 37.795 92.9674 37.795C92.7808 37.795 92.6108 37.7617 92.4574 37.695C92.3041 37.6283 92.1724 37.535 92.0624 37.415C91.9524 37.295 91.8658 37.15 91.8024 36.98C91.7424 36.81 91.7124 36.6217 91.7124 36.415C91.7124 36.2083 91.7424 36.0217 91.8024 35.855C91.8658 35.685 91.9524 35.54 92.0624 35.42C92.1758 35.3 92.3091 35.2083 92.4624 35.145C92.6158 35.0783 92.7841 35.045 92.9674 35.045C93.1508 35.045 93.3191 35.0783 93.4724 35.145C93.6291 35.2083 93.7624 35.3 93.8724 35.42C93.9824 35.54 94.0674 35.685 94.1274 35.855C94.1908 36.0217 94.2224 36.2083 94.2224 36.415ZM93.6024 36.415C93.6024 36.155 93.5458 35.95 93.4324 35.8C93.3224 35.6467 93.1674 35.57 92.9674 35.57C92.7674 35.57 92.6108 35.6467 92.4974 35.8C92.3874 35.95 92.3324 36.155 92.3324 36.415C92.3324 36.6783 92.3874 36.8867 92.4974 37.04C92.6108 37.1933 92.7674 37.27 92.9674 37.27C93.1674 37.27 93.3224 37.1933 93.4324 37.04C93.5458 36.8867 93.6024 36.6783 93.6024 36.415Z" fill="#838383"/>
<path d="M98.2077 37.725H97.6027V36.63H96.6177V37.725H96.0127V35.11H96.6177V36.13H97.6027V35.11H98.2077V37.725Z" fill="#838383"/>
<path d="M99.8966 37.3C100.083 37.3 100.225 37.29 100.322 37.27V36.6C100.288 36.59 100.24 36.58 100.177 36.57C100.113 36.56 100.043 36.555 99.9666 36.555C99.8999 36.555 99.8316 36.56 99.7616 36.57C99.6949 36.58 99.6332 36.5983 99.5766 36.625C99.5232 36.6517 99.4799 36.69 99.4466 36.74C99.4132 36.7867 99.3966 36.8467 99.3966 36.92C99.3966 37.0633 99.4416 37.1633 99.5316 37.22C99.6216 37.2733 99.7432 37.3 99.8966 37.3ZM99.8466 35.045C100.047 35.045 100.215 35.07 100.352 35.12C100.488 35.17 100.597 35.24 100.677 35.33C100.76 35.42 100.818 35.53 100.852 35.66C100.888 35.7867 100.907 35.9267 100.907 36.08V37.665C100.813 37.685 100.672 37.7083 100.482 37.735C100.295 37.765 100.083 37.78 99.8466 37.78C99.6899 37.78 99.5466 37.765 99.4166 37.735C99.2866 37.705 99.1749 37.6567 99.0816 37.59C98.9916 37.5233 98.9199 37.4367 98.8666 37.33C98.8166 37.2233 98.7916 37.0917 98.7916 36.935C98.7916 36.785 98.8199 36.6583 98.8766 36.555C98.9366 36.4517 99.0166 36.3683 99.1166 36.305C99.2166 36.2383 99.3316 36.1917 99.4616 36.165C99.5949 36.135 99.7332 36.12 99.8766 36.12C99.9432 36.12 100.013 36.125 100.087 36.135C100.16 36.1417 100.238 36.155 100.322 36.175V36.075C100.322 36.005 100.313 35.9383 100.297 35.875C100.28 35.8117 100.25 35.7567 100.207 35.71C100.167 35.66 100.112 35.6217 100.042 35.595C99.9749 35.5683 99.8899 35.555 99.7866 35.555C99.6466 35.555 99.5182 35.565 99.4016 35.585C99.2849 35.605 99.1899 35.6283 99.1166 35.655L99.0416 35.165C99.1182 35.1383 99.2299 35.1117 99.3766 35.085C99.5232 35.0583 99.6799 35.045 99.8466 35.045Z" fill="#838383"/>
<path d="M103.382 36.43C103.382 36.16 103.321 35.95 103.197 35.8C103.077 35.65 102.882 35.575 102.612 35.575C102.556 35.575 102.496 35.5783 102.432 35.585C102.372 35.5883 102.312 35.5983 102.252 35.615V37.11C102.306 37.1467 102.376 37.1817 102.462 37.215C102.552 37.245 102.647 37.26 102.747 37.26C102.967 37.26 103.127 37.185 103.227 37.035C103.331 36.885 103.382 36.6833 103.382 36.43ZM104.002 36.42C104.002 36.62 103.976 36.8033 103.922 36.97C103.872 37.1367 103.799 37.28 103.702 37.4C103.606 37.52 103.484 37.6133 103.337 37.68C103.194 37.7467 103.031 37.78 102.847 37.78C102.724 37.78 102.611 37.765 102.507 37.735C102.404 37.705 102.319 37.6717 102.252 37.635V38.65H101.647V35.195C101.771 35.1617 101.922 35.13 102.102 35.1C102.282 35.07 102.472 35.055 102.672 35.055C102.879 35.055 103.064 35.0867 103.227 35.15C103.391 35.2133 103.529 35.305 103.642 35.425C103.759 35.5417 103.847 35.685 103.907 35.855C103.971 36.0217 104.002 36.21 104.002 36.42Z" fill="#838383"/>
<path d="M106.702 35.11C106.432 36.1033 106.119 37.0033 105.762 37.81C105.696 37.96 105.627 38.0883 105.557 38.195C105.487 38.3017 105.409 38.39 105.322 38.46C105.236 38.53 105.139 38.58 105.032 38.61C104.926 38.6433 104.802 38.66 104.662 38.66C104.569 38.66 104.476 38.65 104.382 38.63C104.292 38.61 104.224 38.5883 104.177 38.565L104.287 38.08C104.407 38.1267 104.526 38.15 104.642 38.15C104.799 38.15 104.921 38.1117 105.007 38.035C105.097 37.9617 105.176 37.8467 105.242 37.69C105.052 37.3233 104.869 36.9233 104.692 36.49C104.519 36.0567 104.364 35.5967 104.227 35.11H104.872C104.906 35.25 104.946 35.4017 104.992 35.565C105.042 35.7283 105.096 35.895 105.152 36.065C105.209 36.2317 105.269 36.3983 105.332 36.565C105.396 36.7317 105.459 36.8867 105.522 37.03C105.629 36.7333 105.729 36.4183 105.822 36.085C105.916 35.7483 106.001 35.4233 106.077 35.11H106.702Z" fill="#838383"/>
<path d="M106.825 37.725C106.978 37.4683 107.153 37.2217 107.35 36.985C107.547 36.745 107.745 36.5233 107.945 36.32C107.755 36.1167 107.57 35.91 107.39 35.7C107.21 35.4867 107.052 35.29 106.915 35.11H107.61C107.713 35.25 107.833 35.405 107.97 35.575C108.11 35.745 108.282 35.9533 108.485 36.2V35.11H109.07V36.2C109.28 35.9567 109.453 35.7483 109.59 35.575C109.727 35.4017 109.847 35.2467 109.95 35.11H110.635C110.508 35.29 110.355 35.485 110.175 35.695C109.998 35.905 109.812 36.1117 109.615 36.315C109.835 36.535 110.037 36.76 110.22 36.99C110.407 37.22 110.578 37.465 110.735 37.725H110.06C109.993 37.625 109.92 37.52 109.84 37.41C109.763 37.3 109.682 37.1917 109.595 37.085C109.512 36.975 109.425 36.87 109.335 36.77C109.245 36.67 109.157 36.5767 109.07 36.49V37.725H108.485V36.49C108.398 36.58 108.31 36.6767 108.22 36.78C108.13 36.8833 108.042 36.99 107.955 37.1C107.872 37.2067 107.79 37.3133 107.71 37.42C107.633 37.5267 107.563 37.6283 107.5 37.725H106.825Z" fill="#838383"/>
<path d="M113.359 37.725H112.754V36.63H111.769V37.725H111.164V35.11H111.769V36.13H112.754V35.11H113.359V37.725Z" fill="#838383"/>
<path d="M116.493 36.415C116.493 36.6217 116.463 36.81 116.403 36.98C116.343 37.15 116.258 37.295 116.148 37.415C116.038 37.535 115.905 37.6283 115.748 37.695C115.595 37.7617 115.425 37.795 115.238 37.795C115.051 37.795 114.881 37.7617 114.728 37.695C114.575 37.6283 114.443 37.535 114.333 37.415C114.223 37.295 114.136 37.15 114.073 36.98C114.013 36.81 113.983 36.6217 113.983 36.415C113.983 36.2083 114.013 36.0217 114.073 35.855C114.136 35.685 114.223 35.54 114.333 35.42C114.446 35.3 114.58 35.2083 114.733 35.145C114.886 35.0783 115.055 35.045 115.238 35.045C115.421 35.045 115.59 35.0783 115.743 35.145C115.9 35.2083 116.033 35.3 116.143 35.42C116.253 35.54 116.338 35.685 116.398 35.855C116.461 36.0217 116.493 36.2083 116.493 36.415ZM115.873 36.415C115.873 36.155 115.816 35.95 115.703 35.8C115.593 35.6467 115.438 35.57 115.238 35.57C115.038 35.57 114.881 35.6467 114.768 35.8C114.658 35.95 114.603 36.155 114.603 36.415C114.603 36.6783 114.658 36.8867 114.768 37.04C114.881 37.1933 115.038 37.27 115.238 37.27C115.438 37.27 115.593 37.1933 115.703 37.04C115.816 36.8867 115.873 36.6783 115.873 36.415Z" fill="#838383"/>
<path d="M119.406 35.11V37.725H118.806C118.806 37.535 118.806 37.3467 118.806 37.16C118.81 36.9733 118.811 36.8 118.811 36.64C118.815 36.48 118.816 36.3417 118.816 36.225C118.82 36.105 118.821 36.0167 118.821 35.96C118.721 36.09 118.618 36.2333 118.511 36.39C118.405 36.5467 118.298 36.7033 118.191 36.86C118.088 37.0167 117.99 37.17 117.896 37.32C117.803 37.47 117.721 37.605 117.651 37.725H117.116V35.11H117.711C117.711 35.3033 117.71 35.4883 117.706 35.665C117.706 35.8383 117.706 35.9967 117.706 36.14C117.706 36.2833 117.705 36.4083 117.701 36.515C117.701 36.6217 117.701 36.7033 117.701 36.76C117.795 36.6167 117.891 36.47 117.991 36.32C118.091 36.1667 118.191 36.0183 118.291 35.875C118.395 35.7283 118.496 35.59 118.596 35.46C118.696 35.33 118.793 35.2133 118.886 35.11H119.406ZM118.266 34.72C118.16 34.72 118.06 34.705 117.966 34.675C117.876 34.645 117.795 34.6017 117.721 34.545C117.648 34.4883 117.588 34.42 117.541 34.34C117.495 34.2567 117.466 34.1633 117.456 34.06L117.891 33.945C117.948 34.1817 118.073 34.3 118.266 34.3C118.463 34.3 118.588 34.1833 118.641 33.95L119.071 34.065C119.058 34.1683 119.028 34.2617 118.981 34.345C118.938 34.425 118.88 34.4933 118.806 34.55C118.736 34.6033 118.655 34.645 118.561 34.675C118.468 34.705 118.37 34.72 118.266 34.72Z" fill="#838383"/>
<path d="M123.08 36.43C123.08 36.16 123.018 35.95 122.895 35.8C122.775 35.65 122.58 35.575 122.31 35.575C122.253 35.575 122.193 35.5783 122.13 35.585C122.07 35.5883 122.01 35.5983 121.95 35.615V37.11C122.003 37.1467 122.073 37.1817 122.16 37.215C122.25 37.245 122.345 37.26 122.445 37.26C122.665 37.26 122.825 37.185 122.925 37.035C123.028 36.885 123.08 36.6833 123.08 36.43ZM123.7 36.42C123.7 36.62 123.673 36.8033 123.62 36.97C123.57 37.1367 123.496 37.28 123.4 37.4C123.303 37.52 123.181 37.6133 123.035 37.68C122.891 37.7467 122.728 37.78 122.545 37.78C122.421 37.78 122.308 37.765 122.205 37.735C122.101 37.705 122.016 37.6717 121.95 37.635V38.65H121.345V35.195C121.468 35.1617 121.62 35.13 121.8 35.1C121.98 35.07 122.17 35.055 122.37 35.055C122.576 35.055 122.761 35.0867 122.925 35.15C123.088 35.2133 123.226 35.305 123.34 35.425C123.456 35.5417 123.545 35.685 123.605 35.855C123.668 36.0217 123.7 36.21 123.7 36.42Z" fill="#838383"/>
<path d="M124.178 36.43C124.178 36.2 124.212 35.9983 124.278 35.825C124.348 35.6517 124.44 35.5083 124.553 35.395C124.667 35.2783 124.797 35.1917 124.943 35.135C125.09 35.075 125.24 35.045 125.393 35.045C125.753 35.045 126.033 35.1567 126.233 35.38C126.437 35.6033 126.538 35.9367 126.538 36.38C126.538 36.4133 126.537 36.4517 126.533 36.495C126.533 36.535 126.532 36.5717 126.528 36.605H124.803C124.82 36.815 124.893 36.9783 125.023 37.095C125.157 37.2083 125.348 37.265 125.598 37.265C125.745 37.265 125.878 37.2517 125.998 37.225C126.122 37.1983 126.218 37.17 126.288 37.14L126.368 37.635C126.335 37.6517 126.288 37.67 126.228 37.69C126.172 37.7067 126.105 37.7217 126.028 37.735C125.955 37.7517 125.875 37.765 125.788 37.775C125.702 37.785 125.613 37.79 125.523 37.79C125.293 37.79 125.093 37.7567 124.923 37.69C124.753 37.62 124.613 37.525 124.503 37.405C124.393 37.2817 124.312 37.1383 124.258 36.975C124.205 36.8083 124.178 36.6267 124.178 36.43ZM125.933 36.16C125.933 36.0767 125.922 35.9983 125.898 35.925C125.875 35.8483 125.84 35.7833 125.793 35.73C125.75 35.6733 125.695 35.63 125.628 35.6C125.565 35.5667 125.488 35.55 125.398 35.55C125.305 35.55 125.223 35.5683 125.153 35.605C125.083 35.6383 125.023 35.6833 124.973 35.74C124.927 35.7967 124.89 35.8617 124.863 35.935C124.837 36.0083 124.818 36.0833 124.808 36.16H125.933Z" fill="#838383"/>
<path d="M127.785 36.16C127.861 36.0833 127.945 35.9983 128.035 35.905C128.125 35.8083 128.213 35.7117 128.3 35.615C128.39 35.5183 128.475 35.4267 128.555 35.34C128.635 35.25 128.701 35.1733 128.755 35.11H129.465C129.391 35.1967 129.306 35.2917 129.21 35.395C129.116 35.4983 129.018 35.605 128.915 35.715C128.815 35.8217 128.715 35.9267 128.615 36.03C128.518 36.13 128.43 36.22 128.35 36.3C128.453 36.3867 128.56 36.4883 128.67 36.605C128.783 36.7183 128.893 36.84 129 36.97C129.11 37.0967 129.211 37.2267 129.305 37.36C129.398 37.49 129.476 37.6117 129.54 37.725H128.84C128.776 37.625 128.701 37.52 128.615 37.41C128.531 37.3 128.443 37.1933 128.35 37.09C128.256 36.9833 128.161 36.8833 128.065 36.79C127.968 36.6967 127.875 36.6167 127.785 36.55V37.725H127.18V35.11H127.785V36.16Z" fill="#838383"/>
<path d="M130.898 37.3C131.084 37.3 131.226 37.29 131.323 37.27V36.6C131.289 36.59 131.241 36.58 131.178 36.57C131.114 36.56 131.044 36.555 130.968 36.555C130.901 36.555 130.833 36.56 130.763 36.57C130.696 36.58 130.634 36.5983 130.578 36.625C130.524 36.6517 130.481 36.69 130.448 36.74C130.414 36.7867 130.398 36.8467 130.398 36.92C130.398 37.0633 130.443 37.1633 130.533 37.22C130.623 37.2733 130.744 37.3 130.898 37.3ZM130.848 35.045C131.048 35.045 131.216 35.07 131.353 35.12C131.489 35.17 131.598 35.24 131.678 35.33C131.761 35.42 131.819 35.53 131.853 35.66C131.889 35.7867 131.908 35.9267 131.908 36.08V37.665C131.814 37.685 131.673 37.7083 131.483 37.735C131.296 37.765 131.084 37.78 130.848 37.78C130.691 37.78 130.548 37.765 130.418 37.735C130.288 37.705 130.176 37.6567 130.083 37.59C129.993 37.5233 129.921 37.4367 129.868 37.33C129.818 37.2233 129.793 37.0917 129.793 36.935C129.793 36.785 129.821 36.6583 129.878 36.555C129.938 36.4517 130.018 36.3683 130.118 36.305C130.218 36.2383 130.333 36.1917 130.463 36.165C130.596 36.135 130.734 36.12 130.878 36.12C130.944 36.12 131.014 36.125 131.088 36.135C131.161 36.1417 131.239 36.155 131.323 36.175V36.075C131.323 36.005 131.314 35.9383 131.298 35.875C131.281 35.8117 131.251 35.7567 131.208 35.71C131.168 35.66 131.113 35.6217 131.043 35.595C130.976 35.5683 130.891 35.555 130.788 35.555C130.648 35.555 130.519 35.565 130.403 35.585C130.286 35.605 130.191 35.6283 130.118 35.655L130.043 35.165C130.119 35.1383 130.231 35.1117 130.378 35.085C130.524 35.0583 130.681 35.045 130.848 35.045Z" fill="#838383"/>
<path d="M133.673 35.61C133.67 35.7567 133.665 35.91 133.658 36.07C133.652 36.2267 133.635 36.3817 133.608 36.535C133.585 36.6883 133.547 36.835 133.493 36.975C133.44 37.115 133.365 37.2417 133.268 37.355C133.175 37.465 133.057 37.5583 132.913 37.635C132.773 37.7083 132.602 37.755 132.398 37.775L132.313 37.27C132.483 37.2367 132.615 37.1833 132.708 37.11C132.802 37.0333 132.873 36.9367 132.923 36.82C132.963 36.7333 132.993 36.635 133.013 36.525C133.037 36.415 133.053 36.3 133.063 36.18C133.077 36.0567 133.085 35.9317 133.088 35.805C133.092 35.6783 133.093 35.555 133.093 35.435V35.11H134.943V37.725H134.338V35.61H133.673Z" fill="#838383"/>
<path d="M136.635 37.3C136.822 37.3 136.963 37.29 137.06 37.27V36.6C137.027 36.59 136.978 36.58 136.915 36.57C136.852 36.56 136.782 36.555 136.705 36.555C136.638 36.555 136.57 36.56 136.5 36.57C136.433 36.58 136.372 36.5983 136.315 36.625C136.262 36.6517 136.218 36.69 136.185 36.74C136.152 36.7867 136.135 36.8467 136.135 36.92C136.135 37.0633 136.18 37.1633 136.27 37.22C136.36 37.2733 136.482 37.3 136.635 37.3ZM136.585 35.045C136.785 35.045 136.953 35.07 137.09 35.12C137.227 35.17 137.335 35.24 137.415 35.33C137.498 35.42 137.557 35.53 137.59 35.66C137.627 35.7867 137.645 35.9267 137.645 36.08V37.665C137.552 37.685 137.41 37.7083 137.22 37.735C137.033 37.765 136.822 37.78 136.585 37.78C136.428 37.78 136.285 37.765 136.155 37.735C136.025 37.705 135.913 37.6567 135.82 37.59C135.73 37.5233 135.658 37.4367 135.605 37.33C135.555 37.2233 135.53 37.0917 135.53 36.935C135.53 36.785 135.558 36.6583 135.615 36.555C135.675 36.4517 135.755 36.3683 135.855 36.305C135.955 36.2383 136.07 36.1917 136.2 36.165C136.333 36.135 136.472 36.12 136.615 36.12C136.682 36.12 136.752 36.125 136.825 36.135C136.898 36.1417 136.977 36.155 137.06 36.175V36.075C137.06 36.005 137.052 35.9383 137.035 35.875C137.018 35.8117 136.988 35.7567 136.945 35.71C136.905 35.66 136.85 35.6217 136.78 35.595C136.713 35.5683 136.628 35.555 136.525 35.555C136.385 35.555 136.257 35.565 136.14 35.585C136.023 35.605 135.928 35.6283 135.855 35.655L135.78 35.165C135.857 35.1383 135.968 35.1117 136.115 35.085C136.262 35.0583 136.418 35.045 136.585 35.045Z" fill="#838383"/>
<path d="M138.996 36.01C138.986 36.15 138.976 36.2967 138.966 36.45C138.956 36.6 138.947 36.75 138.941 36.9C138.934 37.05 138.927 37.195 138.921 37.335C138.914 37.475 138.909 37.605 138.906 37.725H138.321C138.327 37.5317 138.337 37.3233 138.351 37.1C138.364 36.8733 138.379 36.645 138.396 36.415C138.416 36.1817 138.436 35.9533 138.456 35.73C138.476 35.5067 138.497 35.3 138.521 35.11H139.046C139.172 35.3133 139.301 35.5533 139.431 35.83C139.561 36.1033 139.706 36.415 139.866 36.765C140.032 36.4083 140.184 36.0867 140.321 35.8C140.457 35.51 140.579 35.28 140.686 35.11H141.216C141.239 35.3 141.261 35.5067 141.281 35.73C141.304 35.9533 141.324 36.1817 141.341 36.415C141.357 36.645 141.372 36.8733 141.386 37.1C141.399 37.3233 141.409 37.5317 141.416 37.725H140.816C140.809 37.4517 140.797 37.17 140.781 36.88C140.767 36.5867 140.751 36.2967 140.731 36.01C140.681 36.11 140.626 36.2217 140.566 36.345C140.509 36.4683 140.452 36.5933 140.396 36.72C140.339 36.8467 140.284 36.97 140.231 37.09C140.177 37.2067 140.131 37.31 140.091 37.4H139.641C139.601 37.31 139.552 37.205 139.496 37.085C139.442 36.965 139.387 36.8417 139.331 36.715C139.274 36.5883 139.216 36.465 139.156 36.345C139.099 36.2217 139.046 36.11 138.996 36.01Z" fill="#838383"/>
<path d="M145.306 37.725H144.701V35.11H145.306V37.725ZM142.726 36.075C142.776 36.0617 142.848 36.05 142.941 36.04C143.038 36.03 143.131 36.025 143.221 36.025C143.364 36.025 143.499 36.0417 143.626 36.075C143.756 36.1083 143.868 36.1617 143.961 36.235C144.058 36.305 144.133 36.3967 144.186 36.51C144.243 36.62 144.271 36.7517 144.271 36.905C144.271 37.0617 144.244 37.195 144.191 37.305C144.138 37.415 144.063 37.505 143.966 37.575C143.869 37.645 143.753 37.6967 143.616 37.73C143.483 37.7633 143.334 37.78 143.171 37.78C142.981 37.78 142.801 37.77 142.631 37.75C142.464 37.73 142.294 37.7 142.121 37.66V35.11H142.726V36.075ZM143.156 37.305C143.313 37.305 143.436 37.2733 143.526 37.21C143.619 37.1433 143.666 37.0383 143.666 36.895C143.666 36.8217 143.651 36.76 143.621 36.71C143.591 36.66 143.549 36.62 143.496 36.59C143.446 36.5567 143.388 36.5333 143.321 36.52C143.258 36.5067 143.191 36.5 143.121 36.5C143.058 36.5 142.988 36.5033 142.911 36.51C142.838 36.5133 142.776 36.5217 142.726 36.535V37.28C142.769 37.2867 142.833 37.2933 142.916 37.3C142.999 37.3033 143.079 37.305 143.156 37.305Z" fill="#838383"/>
<path d="M64.2016 27.725C62.9516 25.025 61.7432 22.2 60.5766 19.25C59.4266 16.3 58.3516 13.35 57.3516 10.4H60.8266C61.2266 11.5667 61.6349 12.7583 62.0516 13.975C62.4682 15.1917 62.8849 16.3917 63.3016 17.575C63.7182 18.7417 64.1349 19.875 64.5516 20.975C64.9682 22.075 65.3766 23.0833 65.7766 24C66.1599 23.0833 66.5599 22.0833 66.9766 21C67.3932 19.9 67.8099 18.7583 68.2266 17.575C68.6599 16.3917 69.0849 15.1917 69.5016 13.975C69.9182 12.7583 70.3182 11.5667 70.7016 10.4H74.0766C73.0599 13.35 71.9766 16.3 70.8266 19.25C69.6766 22.2 68.4766 25.025 67.2266 27.725H64.2016Z" fill="#333333"/>
<path d="M76.317 27.725V10.4H87.442V13.075H79.467V17.35H86.567V19.975H79.467V25.05H88.042V27.725H76.317Z" fill="#333333"/>
<path d="M95.7404 10.225C98.2404 10.225 100.149 10.6833 101.465 11.6C102.799 12.5167 103.465 13.9167 103.465 15.8C103.465 18.15 102.307 19.7417 99.9904 20.575C100.307 20.9583 100.665 21.425 101.065 21.975C101.465 22.525 101.874 23.125 102.29 23.775C102.707 24.4083 103.107 25.0667 103.49 25.75C103.874 26.4167 104.215 27.075 104.515 27.725H100.99C100.674 27.125 100.332 26.525 99.9654 25.925C99.5988 25.3083 99.2238 24.7167 98.8404 24.15C98.4738 23.5667 98.1071 23.025 97.7404 22.525C97.3738 22.0083 97.0321 21.55 96.7154 21.15C96.4821 21.1667 96.2821 21.175 96.1154 21.175C95.9488 21.175 95.7904 21.175 95.6404 21.175H94.1154V27.725H90.9654V10.65C91.7321 10.4833 92.5488 10.375 93.4154 10.325C94.2821 10.2583 95.0571 10.225 95.7404 10.225ZM95.9654 12.95C95.2988 12.95 94.6821 12.975 94.1154 13.025V18.625H95.4904C96.2571 18.625 96.9321 18.5833 97.5154 18.5C98.0988 18.4167 98.5821 18.2667 98.9654 18.05C99.3654 17.8333 99.6654 17.5417 99.8654 17.175C100.065 16.8083 100.165 16.3417 100.165 15.775C100.165 15.2417 100.065 14.7917 99.8654 14.425C99.6654 14.0583 99.3738 13.7667 98.9904 13.55C98.6238 13.3333 98.1821 13.1833 97.6654 13.1C97.1488 13 96.5821 12.95 95.9654 12.95Z" fill="#333333"/>
<path d="M111.157 25.375C112.29 25.375 113.115 25.1833 113.632 24.8C114.148 24.4167 114.407 23.875 114.407 23.175C114.407 22.7583 114.315 22.4 114.132 22.1C113.965 21.8 113.715 21.5333 113.382 21.3C113.065 21.05 112.673 20.825 112.207 20.625C111.74 20.4083 111.207 20.2 110.607 20C110.007 19.7833 109.423 19.55 108.857 19.3C108.307 19.0333 107.815 18.7083 107.382 18.325C106.965 17.9417 106.623 17.4833 106.357 16.95C106.107 16.4167 105.982 15.775 105.982 15.025C105.982 13.4583 106.523 12.2333 107.607 11.35C108.69 10.45 110.165 10 112.032 10C113.115 10 114.073 10.125 114.907 10.375C115.757 10.6083 116.423 10.8667 116.907 11.15L115.932 13.7C115.365 13.3833 114.74 13.1417 114.057 12.975C113.39 12.8083 112.698 12.725 111.982 12.725C111.132 12.725 110.465 12.9 109.982 13.25C109.515 13.6 109.282 14.0917 109.282 14.725C109.282 15.1083 109.357 15.4417 109.507 15.725C109.673 15.9917 109.898 16.2333 110.182 16.45C110.482 16.6667 110.823 16.8667 111.207 17.05C111.607 17.2333 112.04 17.4083 112.507 17.575C113.323 17.875 114.048 18.1833 114.682 18.5C115.332 18.8 115.873 19.1667 116.307 19.6C116.757 20.0167 117.098 20.5167 117.332 21.1C117.565 21.6667 117.682 22.3583 117.682 23.175C117.682 24.7417 117.123 25.9583 116.007 26.825C114.907 27.675 113.29 28.1 111.157 28.1C110.44 28.1 109.782 28.05 109.182 27.95C108.598 27.8667 108.073 27.7583 107.607 27.625C107.157 27.4917 106.765 27.3583 106.432 27.225C106.098 27.075 105.832 26.9417 105.632 26.825L106.557 24.25C107.007 24.5 107.615 24.75 108.382 25C109.148 25.25 110.073 25.375 111.157 25.375Z" fill="#333333"/>
<path d="M131.958 27.725C131.724 27.0417 131.483 26.3667 131.233 25.7C130.983 25.0333 130.741 24.35 130.508 23.65H123.208C122.974 24.35 122.733 25.0417 122.483 25.725C122.249 26.3917 122.016 27.0583 121.783 27.725H118.508C119.158 25.875 119.774 24.1667 120.358 22.6C120.941 21.0333 121.508 19.55 122.058 18.15C122.624 16.75 123.183 15.4167 123.733 14.15C124.283 12.8833 124.849 11.6333 125.433 10.4H128.408C128.991 11.6333 129.558 12.8833 130.108 14.15C130.658 15.4167 131.208 16.75 131.758 18.15C132.324 19.55 132.899 21.0333 133.483 22.6C134.083 24.1667 134.708 25.875 135.358 27.725H131.958ZM126.858 13.75C126.474 14.6333 126.033 15.7083 125.533 16.975C125.049 18.2417 124.541 19.6167 124.008 21.1H129.708C129.174 19.6167 128.658 18.2333 128.158 16.95C127.658 15.6667 127.224 14.6 126.858 13.75Z" fill="#333333"/>
<path d="M148.497 25V27.725H137.547V10.4H140.697V25H148.497Z" fill="#333333"/>
<defs>
<linearGradient id="paint0_linear" x1="19.3646" y1="40.1204" x2="19.3646" y2="-0.22166" gradientUnits="userSpaceOnUse">
<stop stop-color="#EF0F72"/>
<stop offset="1" stop-color="#FE6604"/>
</linearGradient>
</defs>
</svg>
