<svg width="149" height="44" viewBox="0 0 149 44" fill="none" xmlns="http://www.w3.org/2000/svg">
<path fill-rule="evenodd" clip-rule="evenodd" d="M38.6623 10.4509L21.5806 0.602033C20.1884 -0.200678 18.4739 -0.200677 17.0817 0.602033L0 10.4509V30.1409C0 31.7508 0.85933 33.2382 2.25396 34.0423L19.3311 43.8886L36.4083 34.0423C37.8029 33.2382 38.6623 31.7508 38.6623 30.1409V10.4509ZM38.6623 10.4509L19.3311 43.8886L0 10.4509L17.1046 20.114C18.4784 20.8902 20.1582 20.8907 21.5325 20.1153L38.6623 10.4509Z" fill="url(#paint0_linear)"/>
<path d="M62.8723 35.1101V37.7251H62.2673V35.6151H61.3023V37.7251H60.6973V35.1101H62.8723Z" fill="#838383"/>
<path d="M65.3766 36.4301C65.3766 36.1601 65.3149 35.9501 65.1916 35.8001C65.0716 35.6501 64.8766 35.5751 64.6066 35.5751C64.5499 35.5751 64.4899 35.5784 64.4266 35.5851C64.3666 35.5884 64.3066 35.5984 64.2466 35.6151V37.1101C64.2999 37.1467 64.3699 37.1817 64.4566 37.2151C64.5466 37.2451 64.6416 37.2601 64.7416 37.2601C64.9616 37.2601 65.1216 37.1851 65.2216 37.0351C65.3249 36.8851 65.3766 36.6834 65.3766 36.4301ZM65.9966 36.4201C65.9966 36.6201 65.9699 36.8034 65.9166 36.9701C65.8666 37.1367 65.7933 37.2801 65.6966 37.4001C65.5999 37.5201 65.4783 37.6134 65.3316 37.6801C65.1883 37.7467 65.0249 37.7801 64.8416 37.7801C64.7183 37.7801 64.6049 37.7651 64.5016 37.7351C64.3983 37.7051 64.3133 37.6717 64.2466 37.6351V38.6501H63.6416V35.1951C63.7649 35.1617 63.9166 35.1301 64.0966 35.1001C64.2766 35.0701 64.4666 35.0551 64.6666 35.0551C64.8733 35.0551 65.0583 35.0867 65.2216 35.1501C65.3849 35.2134 65.5233 35.3051 65.6366 35.4251C65.7533 35.5417 65.8416 35.6851 65.9016 35.8551C65.9649 36.0217 65.9966 36.2101 65.9966 36.4201Z" fill="#838383"/>
<path d="M68.9851 36.4151C68.9851 36.6217 68.9551 36.8101 68.8951 36.9801C68.8351 37.1501 68.7501 37.2951 68.6401 37.4151C68.5301 37.5351 68.3968 37.6284 68.2401 37.6951C68.0868 37.7617 67.9168 37.7951 67.7301 37.7951C67.5435 37.7951 67.3735 37.7617 67.2201 37.6951C67.0668 37.6284 66.9351 37.5351 66.8251 37.4151C66.7151 37.2951 66.6285 37.1501 66.5651 36.9801C66.5051 36.8101 66.4751 36.6217 66.4751 36.4151C66.4751 36.2084 66.5051 36.0217 66.5651 35.8551C66.6285 35.6851 66.7151 35.5401 66.8251 35.4201C66.9385 35.3001 67.0718 35.2084 67.2251 35.1451C67.3785 35.0784 67.5468 35.0451 67.7301 35.0451C67.9135 35.0451 68.0818 35.0784 68.2351 35.1451C68.3918 35.2084 68.5251 35.3001 68.6351 35.4201C68.7451 35.5401 68.8301 35.6851 68.8901 35.8551C68.9535 36.0217 68.9851 36.2084 68.9851 36.4151ZM68.3651 36.4151C68.3651 36.1551 68.3085 35.9501 68.1951 35.8001C68.0851 35.6467 67.9301 35.5701 67.7301 35.5701C67.5301 35.5701 67.3735 35.6467 67.2601 35.8001C67.1501 35.9501 67.0951 36.1551 67.0951 36.4151C67.0951 36.6784 67.1501 36.8867 67.2601 37.0401C67.3735 37.1934 67.5301 37.2701 67.7301 37.2701C67.9301 37.2701 68.0851 37.1934 68.1951 37.0401C68.3085 36.8867 68.3651 36.6784 68.3651 36.4151Z" fill="#838383"/>
<path d="M71.8984 35.1101V37.7251H71.2984C71.2984 37.5351 71.2984 37.3467 71.2984 37.1601C71.3017 36.9734 71.3034 36.8001 71.3034 36.6401C71.3067 36.4801 71.3084 36.3417 71.3084 36.2251C71.3117 36.1051 71.3134 36.0167 71.3134 35.9601C71.2134 36.0901 71.1101 36.2334 71.0034 36.3901C70.8967 36.5467 70.7901 36.7034 70.6834 36.8601C70.5801 37.0167 70.4817 37.1701 70.3884 37.3201C70.2951 37.4701 70.2134 37.6051 70.1434 37.7251H69.6084V35.1101H70.2034C70.2034 35.3034 70.2017 35.4884 70.1984 35.6651C70.1984 35.8384 70.1984 35.9967 70.1984 36.1401C70.1984 36.2834 70.1967 36.4084 70.1934 36.5151C70.1934 36.6217 70.1934 36.7034 70.1934 36.7601C70.2867 36.6167 70.3834 36.4701 70.4834 36.3201C70.5834 36.1667 70.6834 36.0184 70.7834 35.8751C70.8867 35.7284 70.9884 35.5901 71.0884 35.4601C71.1884 35.3301 71.2851 35.2134 71.3784 35.1101H71.8984Z" fill="#838383"/>
<path d="M72.5549 35.1901C72.5983 35.1734 72.6516 35.1567 72.7149 35.1401C72.7783 35.1234 72.8466 35.1084 72.9199 35.0951C72.9933 35.0817 73.0699 35.0717 73.1499 35.0651C73.2333 35.0551 73.3166 35.0501 73.3999 35.0501C73.5433 35.0501 73.6799 35.0634 73.8099 35.0901C73.9399 35.1167 74.0533 35.1601 74.1499 35.2201C74.2466 35.2801 74.3233 35.3567 74.3799 35.4501C74.4399 35.5434 74.4699 35.6551 74.4699 35.7851C74.4699 35.9251 74.4316 36.0434 74.3549 36.1401C74.2783 36.2367 74.1899 36.3084 74.0899 36.3551C74.2399 36.4117 74.3549 36.4951 74.4349 36.6051C74.5149 36.7151 74.5549 36.8551 74.5549 37.0251C74.5549 37.1617 74.5249 37.2784 74.4649 37.3751C74.4083 37.4717 74.3283 37.5517 74.2249 37.6151C74.1249 37.6751 74.0066 37.7184 73.8699 37.7451C73.7333 37.7751 73.5849 37.7901 73.4249 37.7901C73.2316 37.7901 73.0516 37.7734 72.8849 37.7401C72.7183 37.7101 72.5866 37.6734 72.4899 37.6301L72.5949 37.1401C72.6583 37.1667 72.7599 37.1984 72.8999 37.2351C73.0399 37.2684 73.2049 37.2851 73.3949 37.2851C73.7616 37.2851 73.9449 37.1784 73.9449 36.9651C73.9449 36.8884 73.9283 36.8267 73.8949 36.7801C73.8616 36.7334 73.8199 36.6984 73.7699 36.6751C73.7199 36.6484 73.6633 36.6317 73.5999 36.6251C73.5366 36.6151 73.4749 36.6101 73.4149 36.6101H72.9149V36.1601H73.4099C73.5333 36.1601 73.6383 36.1384 73.7249 36.0951C73.8149 36.0484 73.8599 35.9684 73.8599 35.8551C73.8599 35.7617 73.8166 35.6884 73.7299 35.6351C73.6466 35.5784 73.5283 35.5501 73.3749 35.5501C73.3083 35.5501 73.2399 35.5551 73.1699 35.5651C73.0999 35.5717 73.0316 35.5817 72.9649 35.5951C72.9016 35.6084 72.8433 35.6234 72.7899 35.6401C72.7366 35.6534 72.6949 35.6667 72.6649 35.6801L72.5549 35.1901Z" fill="#838383"/>
<path d="M76.2099 37.7751C76.1133 37.7751 76.0149 37.7717 75.9149 37.7651C75.8149 37.7584 75.7183 37.7501 75.6249 37.7401C75.5349 37.7301 75.4499 37.7201 75.3699 37.7101C75.2899 37.6967 75.2233 37.6834 75.1699 37.6701V35.1451C75.2233 35.1317 75.2899 35.1201 75.3699 35.1101C75.4499 35.0967 75.5349 35.0867 75.6249 35.0801C75.7183 35.0701 75.8149 35.0634 75.9149 35.0601C76.0149 35.0534 76.1133 35.0501 76.2099 35.0501C76.5633 35.0501 76.8383 35.1151 77.0349 35.2451C77.2316 35.3717 77.3299 35.5501 77.3299 35.7801C77.3299 35.9001 77.2999 36.0067 77.2399 36.1001C77.1799 36.1934 77.1016 36.2634 77.0049 36.3101C77.1249 36.3567 77.2283 36.4301 77.3149 36.5301C77.4016 36.6301 77.4449 36.7717 77.4449 36.9551C77.4449 37.2184 77.3416 37.4217 77.1349 37.5651C76.9283 37.7051 76.6199 37.7751 76.2099 37.7751ZM76.2249 36.1601C76.3749 36.1601 76.4983 36.1384 76.5949 36.0951C76.6949 36.0517 76.7449 35.9651 76.7449 35.8351C76.7449 35.7717 76.7283 35.7201 76.6949 35.6801C76.6649 35.6401 76.6233 35.6084 76.5699 35.5851C76.5166 35.5617 76.4549 35.5467 76.3849 35.5401C76.3149 35.5301 76.2416 35.5251 76.1649 35.5251C76.1049 35.5251 76.0349 35.5267 75.9549 35.5301C75.8783 35.5334 75.8166 35.5384 75.7699 35.5451V36.1601H76.2249ZM75.7699 37.2751C75.8099 37.2817 75.8749 37.2884 75.9649 37.2951C76.0583 37.2984 76.1449 37.3001 76.2249 37.3001C76.4049 37.3001 76.5533 37.2751 76.6699 37.2251C76.7899 37.1751 76.8499 37.0801 76.8499 36.9401C76.8499 36.8034 76.7949 36.7101 76.6849 36.6601C76.5783 36.6067 76.4383 36.5801 76.2649 36.5801H75.7699V37.2751Z" fill="#838383"/>
<path d="M80.3816 36.4151C80.3816 36.6217 80.3516 36.8101 80.2916 36.9801C80.2316 37.1501 80.1466 37.2951 80.0366 37.4151C79.9266 37.5351 79.7933 37.6284 79.6366 37.6951C79.4833 37.7617 79.3133 37.7951 79.1266 37.7951C78.9399 37.7951 78.7699 37.7617 78.6166 37.6951C78.4633 37.6284 78.3316 37.5351 78.2216 37.4151C78.1116 37.2951 78.0249 37.1501 77.9616 36.9801C77.9016 36.8101 77.8716 36.6217 77.8716 36.4151C77.8716 36.2084 77.9016 36.0217 77.9616 35.8551C78.0249 35.6851 78.1116 35.5401 78.2216 35.4201C78.3349 35.3001 78.4683 35.2084 78.6216 35.1451C78.7749 35.0784 78.9433 35.0451 79.1266 35.0451C79.3099 35.0451 79.4783 35.0784 79.6316 35.1451C79.7883 35.2084 79.9216 35.3001 80.0316 35.4201C80.1416 35.5401 80.2266 35.6851 80.2866 35.8551C80.3499 36.0217 80.3816 36.2084 80.3816 36.4151ZM79.7616 36.4151C79.7616 36.1551 79.7049 35.9501 79.5916 35.8001C79.4816 35.6467 79.3266 35.5701 79.1266 35.5701C78.9266 35.5701 78.7699 35.6467 78.6566 35.8001C78.5466 35.9501 78.4916 36.1551 78.4916 36.4151C78.4916 36.6784 78.5466 36.8867 78.6566 37.0401C78.7699 37.1934 78.9266 37.2701 79.1266 37.2701C79.3266 37.2701 79.4816 37.1934 79.5916 37.0401C79.7049 36.8867 79.7616 36.6784 79.7616 36.4151Z" fill="#838383"/>
<path d="M80.6849 37.2301H80.9849C81.0882 37.0934 81.1682 36.9417 81.2249 36.7751C81.2849 36.6051 81.3282 36.4284 81.3549 36.2451C81.3815 36.0584 81.3982 35.8684 81.4049 35.6751C81.4115 35.4817 81.4165 35.2934 81.4199 35.1101H83.2949V37.2301H83.6949V38.4651H83.1549V37.7251H81.2199V38.4651H80.6849V37.2301ZM82.6899 37.2301V35.6101H81.9799C81.9732 35.7467 81.9649 35.8867 81.9549 36.0301C81.9449 36.1701 81.9265 36.3101 81.8999 36.4501C81.8732 36.5867 81.8365 36.7217 81.7899 36.8551C81.7465 36.9851 81.6882 37.1101 81.6149 37.2301H82.6899Z" fill="#838383"/>
<path d="M84.0239 36.4201C84.0239 36.2267 84.0539 36.0467 84.1139 35.8801C84.1739 35.7101 84.2589 35.5634 84.3689 35.4401C84.4823 35.3167 84.6189 35.2201 84.7789 35.1501C84.9389 35.0801 85.1189 35.0451 85.3189 35.0451C85.5656 35.0451 85.7989 35.0901 86.0189 35.1801L85.8889 35.6751C85.8189 35.6451 85.7389 35.6201 85.6489 35.6001C85.5623 35.5801 85.4689 35.5701 85.3689 35.5701C85.1323 35.5701 84.9523 35.6451 84.8289 35.7951C84.7056 35.9417 84.6439 36.1501 84.6439 36.4201C84.6439 36.6801 84.7023 36.8867 84.8189 37.0401C84.9356 37.1901 85.1323 37.2651 85.4089 37.2651C85.5123 37.2651 85.6139 37.2551 85.7139 37.2351C85.8139 37.2151 85.9006 37.1901 85.9739 37.1601L86.0589 37.6601C85.9923 37.6934 85.8906 37.7234 85.7539 37.7501C85.6206 37.7767 85.4823 37.7901 85.3389 37.7901C85.1156 37.7901 84.9206 37.7567 84.7539 37.6901C84.5906 37.6201 84.4539 37.5251 84.3439 37.4051C84.2373 37.2817 84.1573 37.1367 84.1039 36.9701C84.0506 36.8001 84.0239 36.6167 84.0239 36.4201Z" fill="#838383"/>
<path d="M88.5608 35.6151H87.7158V37.7251H87.1108V35.6151H86.2708V35.1101H88.5608V35.6151Z" fill="#838383"/>
<path d="M90.0527 37.7751C89.956 37.7751 89.8577 37.7717 89.7577 37.7651C89.6577 37.7584 89.561 37.7501 89.4677 37.7401C89.3777 37.7301 89.2927 37.7201 89.2127 37.7101C89.1327 37.6967 89.066 37.6834 89.0127 37.6701V35.1451C89.066 35.1317 89.1327 35.1201 89.2127 35.1101C89.2927 35.0967 89.3777 35.0867 89.4677 35.0801C89.561 35.0701 89.6577 35.0634 89.7577 35.0601C89.8577 35.0534 89.956 35.0501 90.0527 35.0501C90.406 35.0501 90.681 35.1151 90.8777 35.2451C91.0744 35.3717 91.1727 35.5501 91.1727 35.7801C91.1727 35.9001 91.1427 36.0067 91.0827 36.1001C91.0227 36.1934 90.9444 36.2634 90.8477 36.3101C90.9677 36.3567 91.071 36.4301 91.1577 36.5301C91.2444 36.6301 91.2877 36.7717 91.2877 36.9551C91.2877 37.2184 91.1844 37.4217 90.9777 37.5651C90.771 37.7051 90.4627 37.7751 90.0527 37.7751ZM90.0677 36.1601C90.2177 36.1601 90.341 36.1384 90.4377 36.0951C90.5377 36.0517 90.5877 35.9651 90.5877 35.8351C90.5877 35.7717 90.571 35.7201 90.5377 35.6801C90.5077 35.6401 90.466 35.6084 90.4127 35.5851C90.3594 35.5617 90.2977 35.5467 90.2277 35.5401C90.1577 35.5301 90.0844 35.5251 90.0077 35.5251C89.9477 35.5251 89.8777 35.5267 89.7977 35.5301C89.721 35.5334 89.6594 35.5384 89.6127 35.5451V36.1601H90.0677ZM89.6127 37.2751C89.6527 37.2817 89.7177 37.2884 89.8077 37.2951C89.901 37.2984 89.9877 37.3001 90.0677 37.3001C90.2477 37.3001 90.396 37.2751 90.5127 37.2251C90.6327 37.1751 90.6927 37.0801 90.6927 36.9401C90.6927 36.8034 90.6377 36.7101 90.5277 36.6601C90.421 36.6067 90.281 36.5801 90.1077 36.5801H89.6127V37.2751Z" fill="#838383"/>
<path d="M94.2244 36.4151C94.2244 36.6217 94.1944 36.8101 94.1344 36.9801C94.0744 37.1501 93.9894 37.2951 93.8794 37.4151C93.7694 37.5351 93.636 37.6284 93.4794 37.6951C93.326 37.7617 93.156 37.7951 92.9694 37.7951C92.7827 37.7951 92.6127 37.7617 92.4594 37.6951C92.306 37.6284 92.1744 37.5351 92.0644 37.4151C91.9544 37.2951 91.8677 37.1501 91.8044 36.9801C91.7444 36.8101 91.7144 36.6217 91.7144 36.4151C91.7144 36.2084 91.7444 36.0217 91.8044 35.8551C91.8677 35.6851 91.9544 35.5401 92.0644 35.4201C92.1777 35.3001 92.311 35.2084 92.4644 35.1451C92.6177 35.0784 92.786 35.0451 92.9694 35.0451C93.1527 35.0451 93.321 35.0784 93.4744 35.1451C93.631 35.2084 93.7644 35.3001 93.8744 35.4201C93.9844 35.5401 94.0694 35.6851 94.1294 35.8551C94.1927 36.0217 94.2244 36.2084 94.2244 36.4151ZM93.6044 36.4151C93.6044 36.1551 93.5477 35.9501 93.4344 35.8001C93.3244 35.6467 93.1694 35.5701 92.9694 35.5701C92.7694 35.5701 92.6127 35.6467 92.4994 35.8001C92.3894 35.9501 92.3344 36.1551 92.3344 36.4151C92.3344 36.6784 92.3894 36.8867 92.4994 37.0401C92.6127 37.1934 92.7694 37.2701 92.9694 37.2701C93.1694 37.2701 93.3244 37.1934 93.4344 37.0401C93.5477 36.8867 93.6044 36.6784 93.6044 36.4151Z" fill="#838383"/>
<path d="M98.2097 37.7251H97.6046V36.6301H96.6197V37.7251H96.0146V35.1101H96.6197V36.1301H97.6046V35.1101H98.2097V37.7251Z" fill="#838383"/>
<path d="M99.8985 37.3001C100.085 37.3001 100.227 37.2901 100.324 37.2701V36.6001C100.29 36.5901 100.242 36.5801 100.179 36.5701C100.115 36.5601 100.045 36.5551 99.9685 36.5551C99.9019 36.5551 99.8335 36.5601 99.7635 36.5701C99.6968 36.5801 99.6352 36.5984 99.5785 36.6251C99.5252 36.6517 99.4818 36.6901 99.4485 36.7401C99.4152 36.7867 99.3985 36.8467 99.3985 36.9201C99.3985 37.0634 99.4435 37.1634 99.5335 37.2201C99.6235 37.2734 99.7452 37.3001 99.8985 37.3001ZM99.8485 35.0451C100.049 35.0451 100.217 35.0701 100.354 35.1201C100.49 35.1701 100.599 35.2401 100.679 35.3301C100.762 35.4201 100.82 35.5301 100.854 35.6601C100.89 35.7867 100.909 35.9267 100.909 36.0801V37.6651C100.815 37.6851 100.674 37.7084 100.484 37.7351C100.297 37.7651 100.085 37.7801 99.8485 37.7801C99.6919 37.7801 99.5485 37.7651 99.4185 37.7351C99.2885 37.7051 99.1769 37.6567 99.0835 37.5901C98.9935 37.5234 98.9219 37.4367 98.8685 37.3301C98.8185 37.2234 98.7935 37.0917 98.7935 36.9351C98.7935 36.7851 98.8218 36.6584 98.8785 36.5551C98.9385 36.4517 99.0185 36.3684 99.1185 36.3051C99.2185 36.2384 99.3335 36.1917 99.4635 36.1651C99.5969 36.1351 99.7352 36.1201 99.8785 36.1201C99.9452 36.1201 100.015 36.1251 100.089 36.1351C100.162 36.1417 100.24 36.1551 100.324 36.1751V36.0751C100.324 36.0051 100.315 35.9384 100.299 35.8751C100.282 35.8117 100.252 35.7567 100.209 35.7101C100.169 35.6601 100.114 35.6217 100.044 35.5951C99.9769 35.5684 99.8918 35.5551 99.7885 35.5551C99.6485 35.5551 99.5202 35.5651 99.4035 35.5851C99.2869 35.6051 99.1919 35.6284 99.1185 35.6551L99.0435 35.1651C99.1202 35.1384 99.2318 35.1117 99.3785 35.0851C99.5252 35.0584 99.6819 35.0451 99.8485 35.0451Z" fill="#838383"/>
<path d="M103.384 36.4301C103.384 36.1601 103.323 35.9501 103.199 35.8001C103.079 35.6501 102.884 35.5751 102.614 35.5751C102.558 35.5751 102.498 35.5784 102.434 35.5851C102.374 35.5884 102.314 35.5984 102.254 35.6151V37.1101C102.308 37.1467 102.378 37.1817 102.464 37.2151C102.554 37.2451 102.649 37.2601 102.749 37.2601C102.969 37.2601 103.129 37.1851 103.229 37.0351C103.333 36.8851 103.384 36.6834 103.384 36.4301ZM104.004 36.4201C104.004 36.6201 103.978 36.8034 103.924 36.9701C103.874 37.1367 103.801 37.2801 103.704 37.4001C103.608 37.5201 103.486 37.6134 103.339 37.6801C103.196 37.7467 103.033 37.7801 102.849 37.7801C102.726 37.7801 102.613 37.7651 102.509 37.7351C102.406 37.7051 102.321 37.6717 102.254 37.6351V38.6501H101.649V35.1951C101.773 35.1617 101.924 35.1301 102.104 35.1001C102.284 35.0701 102.474 35.0551 102.674 35.0551C102.881 35.0551 103.066 35.0867 103.229 35.1501C103.393 35.2134 103.531 35.3051 103.644 35.4251C103.761 35.5417 103.849 35.6851 103.909 35.8551C103.973 36.0217 104.004 36.2101 104.004 36.4201Z" fill="#838383"/>
<path d="M106.704 35.1101C106.434 36.1034 106.121 37.0034 105.764 37.8101C105.698 37.9601 105.629 38.0884 105.559 38.1951C105.489 38.3017 105.411 38.3901 105.324 38.4601C105.238 38.5301 105.141 38.5801 105.034 38.6101C104.928 38.6434 104.804 38.6601 104.664 38.6601C104.571 38.6601 104.478 38.6501 104.384 38.6301C104.294 38.6101 104.226 38.5884 104.179 38.5651L104.289 38.0801C104.409 38.1267 104.528 38.1501 104.644 38.1501C104.801 38.1501 104.923 38.1117 105.009 38.0351C105.099 37.9617 105.178 37.8467 105.244 37.6901C105.054 37.3234 104.871 36.9234 104.694 36.4901C104.521 36.0567 104.366 35.5967 104.229 35.1101H104.874C104.908 35.2501 104.948 35.4017 104.994 35.5651C105.044 35.7284 105.098 35.8951 105.154 36.0651C105.211 36.2317 105.271 36.3984 105.334 36.5651C105.398 36.7317 105.461 36.8867 105.524 37.0301C105.631 36.7334 105.731 36.4184 105.824 36.0851C105.918 35.7484 106.003 35.4234 106.079 35.1101H106.704Z" fill="#838383"/>
<path d="M106.827 37.7251C106.98 37.4684 107.155 37.2217 107.352 36.9851C107.549 36.7451 107.747 36.5234 107.947 36.3201C107.757 36.1167 107.572 35.9101 107.392 35.7001C107.212 35.4867 107.054 35.2901 106.917 35.1101H107.612C107.715 35.2501 107.835 35.4051 107.972 35.5751C108.112 35.7451 108.284 35.9534 108.487 36.2001V35.1101H109.072V36.2001C109.282 35.9567 109.455 35.7484 109.592 35.5751C109.729 35.4017 109.849 35.2467 109.952 35.1101H110.637C110.51 35.2901 110.357 35.4851 110.177 35.6951C110 35.9051 109.814 36.1117 109.617 36.3151C109.837 36.5351 110.039 36.7601 110.222 36.9901C110.409 37.2201 110.58 37.4651 110.737 37.7251H110.062C109.995 37.6251 109.922 37.5201 109.842 37.4101C109.765 37.3001 109.684 37.1917 109.597 37.0851C109.514 36.9751 109.427 36.8701 109.337 36.7701C109.247 36.6701 109.159 36.5767 109.072 36.4901V37.7251H108.487V36.4901C108.4 36.5801 108.312 36.6767 108.222 36.7801C108.132 36.8834 108.044 36.9901 107.957 37.1001C107.874 37.2067 107.792 37.3134 107.712 37.4201C107.635 37.5267 107.565 37.6284 107.502 37.7251H106.827Z" fill="#838383"/>
<path d="M113.361 37.7251H112.756V36.6301H111.771V37.7251H111.166V35.1101H111.771V36.1301H112.756V35.1101H113.361V37.7251Z" fill="#838383"/>
<path d="M116.495 36.4151C116.495 36.6217 116.465 36.8101 116.405 36.9801C116.345 37.1501 116.26 37.2951 116.15 37.4151C116.04 37.5351 115.907 37.6284 115.75 37.6951C115.597 37.7617 115.427 37.7951 115.24 37.7951C115.053 37.7951 114.883 37.7617 114.73 37.6951C114.577 37.6284 114.445 37.5351 114.335 37.4151C114.225 37.2951 114.138 37.1501 114.075 36.9801C114.015 36.8101 113.985 36.6217 113.985 36.4151C113.985 36.2084 114.015 36.0217 114.075 35.8551C114.138 35.6851 114.225 35.5401 114.335 35.4201C114.448 35.3001 114.582 35.2084 114.735 35.1451C114.888 35.0784 115.057 35.0451 115.24 35.0451C115.423 35.0451 115.592 35.0784 115.745 35.1451C115.902 35.2084 116.035 35.3001 116.145 35.4201C116.255 35.5401 116.34 35.6851 116.4 35.8551C116.463 36.0217 116.495 36.2084 116.495 36.4151ZM115.875 36.4151C115.875 36.1551 115.818 35.9501 115.705 35.8001C115.595 35.6467 115.44 35.5701 115.24 35.5701C115.04 35.5701 114.883 35.6467 114.77 35.8001C114.66 35.9501 114.605 36.1551 114.605 36.4151C114.605 36.6784 114.66 36.8867 114.77 37.0401C114.883 37.1934 115.04 37.2701 115.24 37.2701C115.44 37.2701 115.595 37.1934 115.705 37.0401C115.818 36.8867 115.875 36.6784 115.875 36.4151Z" fill="#838383"/>
<path d="M119.408 35.1101V37.7251H118.808C118.808 37.5351 118.808 37.3467 118.808 37.1601C118.812 36.9734 118.813 36.8001 118.813 36.6401C118.817 36.4801 118.818 36.3417 118.818 36.2251C118.821 36.1051 118.823 36.0167 118.823 35.9601C118.723 36.0901 118.62 36.2334 118.513 36.3901C118.406 36.5467 118.3 36.7034 118.193 36.8601C118.09 37.0167 117.992 37.1701 117.898 37.3201C117.805 37.4701 117.723 37.6051 117.653 37.7251H117.118V35.1101H117.713C117.713 35.3034 117.711 35.4884 117.708 35.6651C117.708 35.8384 117.708 35.9967 117.708 36.1401C117.708 36.2834 117.707 36.4084 117.703 36.5151C117.703 36.6217 117.703 36.7034 117.703 36.7601C117.797 36.6167 117.893 36.4701 117.993 36.3201C118.093 36.1667 118.193 36.0184 118.293 35.8751C118.396 35.7284 118.498 35.5901 118.598 35.4601C118.698 35.3301 118.795 35.2134 118.888 35.1101H119.408ZM118.268 34.7201C118.161 34.7201 118.062 34.7051 117.968 34.6751C117.878 34.6451 117.797 34.6017 117.723 34.5451C117.65 34.4884 117.59 34.4201 117.543 34.3401C117.497 34.2567 117.468 34.1634 117.458 34.0601L117.893 33.9451C117.95 34.1817 118.075 34.3001 118.268 34.3001C118.465 34.3001 118.59 34.1834 118.643 33.9501L119.073 34.0651C119.06 34.1684 119.03 34.2617 118.983 34.3451C118.94 34.4251 118.882 34.4934 118.808 34.5501C118.738 34.6034 118.657 34.6451 118.563 34.6751C118.47 34.7051 118.371 34.7201 118.268 34.7201Z" fill="#838383"/>
<path d="M123.082 36.4301C123.082 36.1601 123.02 35.9501 122.897 35.8001C122.777 35.6501 122.582 35.5751 122.312 35.5751C122.255 35.5751 122.195 35.5784 122.132 35.5851C122.072 35.5884 122.012 35.5984 121.952 35.6151V37.1101C122.005 37.1467 122.075 37.1817 122.162 37.2151C122.252 37.2451 122.347 37.2601 122.447 37.2601C122.667 37.2601 122.827 37.1851 122.927 37.0351C123.03 36.8851 123.082 36.6834 123.082 36.4301ZM123.702 36.4201C123.702 36.6201 123.675 36.8034 123.622 36.9701C123.572 37.1367 123.498 37.2801 123.402 37.4001C123.305 37.5201 123.183 37.6134 123.037 37.6801C122.893 37.7467 122.73 37.7801 122.547 37.7801C122.423 37.7801 122.31 37.7651 122.207 37.7351C122.103 37.7051 122.018 37.6717 121.952 37.6351V38.6501H121.347V35.1951C121.47 35.1617 121.622 35.1301 121.802 35.1001C121.982 35.0701 122.172 35.0551 122.372 35.0551C122.578 35.0551 122.763 35.0867 122.927 35.1501C123.09 35.2134 123.228 35.3051 123.342 35.4251C123.458 35.5417 123.547 35.6851 123.607 35.8551C123.67 36.0217 123.702 36.2101 123.702 36.4201Z" fill="#838383"/>
<path d="M124.18 36.4301C124.18 36.2001 124.214 35.9984 124.28 35.8251C124.35 35.6517 124.442 35.5084 124.555 35.3951C124.669 35.2784 124.799 35.1917 124.945 35.1351C125.092 35.0751 125.242 35.0451 125.395 35.0451C125.755 35.0451 126.035 35.1567 126.235 35.3801C126.439 35.6034 126.54 35.9367 126.54 36.3801C126.54 36.4134 126.539 36.4517 126.535 36.4951C126.535 36.5351 126.534 36.5717 126.53 36.6051H124.805C124.822 36.8151 124.895 36.9784 125.025 37.0951C125.159 37.2084 125.35 37.2651 125.6 37.2651C125.747 37.2651 125.88 37.2517 126 37.2251C126.124 37.1984 126.22 37.1701 126.29 37.1401L126.37 37.6351C126.337 37.6517 126.29 37.6701 126.23 37.6901C126.174 37.7067 126.107 37.7217 126.03 37.7351C125.957 37.7517 125.877 37.7651 125.79 37.7751C125.704 37.7851 125.615 37.7901 125.525 37.7901C125.295 37.7901 125.095 37.7567 124.925 37.6901C124.755 37.6201 124.615 37.5251 124.505 37.4051C124.395 37.2817 124.314 37.1384 124.26 36.9751C124.207 36.8084 124.18 36.6267 124.18 36.4301ZM125.935 36.1601C125.935 36.0767 125.924 35.9984 125.9 35.9251C125.877 35.8484 125.842 35.7834 125.795 35.7301C125.752 35.6734 125.697 35.6301 125.63 35.6001C125.567 35.5667 125.49 35.5501 125.4 35.5501C125.307 35.5501 125.225 35.5684 125.155 35.6051C125.085 35.6384 125.025 35.6834 124.975 35.7401C124.929 35.7967 124.892 35.8617 124.865 35.9351C124.839 36.0084 124.82 36.0834 124.81 36.1601H125.935Z" fill="#838383"/>
<path d="M127.787 36.1601C127.863 36.0834 127.947 35.9984 128.037 35.9051C128.127 35.8084 128.215 35.7117 128.302 35.6151C128.392 35.5184 128.477 35.4267 128.557 35.3401C128.637 35.2501 128.703 35.1734 128.757 35.1101H129.467C129.393 35.1967 129.308 35.2917 129.212 35.3951C129.118 35.4984 129.02 35.6051 128.917 35.7151C128.817 35.8217 128.717 35.9267 128.617 36.0301C128.52 36.1301 128.432 36.2201 128.352 36.3001C128.455 36.3867 128.562 36.4884 128.672 36.6051C128.785 36.7184 128.895 36.8401 129.002 36.9701C129.112 37.0967 129.213 37.2267 129.307 37.3601C129.4 37.4901 129.478 37.6117 129.542 37.7251H128.842C128.778 37.6251 128.703 37.5201 128.617 37.4101C128.533 37.3001 128.445 37.1934 128.352 37.0901C128.258 36.9834 128.163 36.8834 128.067 36.7901C127.97 36.6967 127.877 36.6167 127.787 36.5501V37.7251H127.182V35.1101H127.787V36.1601Z" fill="#838383"/>
<path d="M130.899 37.3001C131.086 37.3001 131.228 37.2901 131.324 37.2701V36.6001C131.291 36.5901 131.243 36.5801 131.179 36.5701C131.116 36.5601 131.046 36.5551 130.969 36.5551C130.903 36.5551 130.834 36.5601 130.764 36.5701C130.698 36.5801 130.636 36.5984 130.579 36.6251C130.526 36.6517 130.483 36.6901 130.449 36.7401C130.416 36.7867 130.399 36.8467 130.399 36.9201C130.399 37.0634 130.444 37.1634 130.534 37.2201C130.624 37.2734 130.746 37.3001 130.899 37.3001ZM130.849 35.0451C131.049 35.0451 131.218 35.0701 131.354 35.1201C131.491 35.1701 131.599 35.2401 131.679 35.3301C131.763 35.4201 131.821 35.5301 131.854 35.6601C131.891 35.7867 131.909 35.9267 131.909 36.0801V37.6651C131.816 37.6851 131.674 37.7084 131.484 37.7351C131.298 37.7651 131.086 37.7801 130.849 37.7801C130.693 37.7801 130.549 37.7651 130.419 37.7351C130.289 37.7051 130.178 37.6567 130.084 37.5901C129.994 37.5234 129.923 37.4367 129.869 37.3301C129.819 37.2234 129.794 37.0917 129.794 36.9351C129.794 36.7851 129.823 36.6584 129.879 36.5551C129.939 36.4517 130.019 36.3684 130.119 36.3051C130.219 36.2384 130.334 36.1917 130.464 36.1651C130.598 36.1351 130.736 36.1201 130.879 36.1201C130.946 36.1201 131.016 36.1251 131.089 36.1351C131.163 36.1417 131.241 36.1551 131.324 36.1751V36.0751C131.324 36.0051 131.316 35.9384 131.299 35.8751C131.283 35.8117 131.253 35.7567 131.209 35.7101C131.169 35.6601 131.114 35.6217 131.044 35.5951C130.978 35.5684 130.893 35.5551 130.789 35.5551C130.649 35.5551 130.521 35.5651 130.404 35.5851C130.288 35.6051 130.193 35.6284 130.119 35.6551L130.044 35.1651C130.121 35.1384 130.233 35.1117 130.379 35.0851C130.526 35.0584 130.683 35.0451 130.849 35.0451Z" fill="#838383"/>
<path d="M133.675 35.6101C133.672 35.7567 133.667 35.9101 133.66 36.0701C133.654 36.2267 133.637 36.3817 133.61 36.5351C133.587 36.6884 133.549 36.8351 133.495 36.9751C133.442 37.1151 133.367 37.2417 133.27 37.3551C133.177 37.4651 133.059 37.5584 132.915 37.6351C132.775 37.7084 132.604 37.7551 132.4 37.7751L132.315 37.2701C132.485 37.2367 132.617 37.1834 132.71 37.1101C132.804 37.0334 132.875 36.9367 132.925 36.8201C132.965 36.7334 132.995 36.6351 133.015 36.5251C133.039 36.4151 133.055 36.3001 133.065 36.1801C133.079 36.0567 133.087 35.9317 133.09 35.8051C133.094 35.6784 133.095 35.5551 133.095 35.4351V35.1101H134.945V37.7251H134.34V35.6101H133.675Z" fill="#838383"/>
<path d="M136.637 37.3001C136.823 37.3001 136.965 37.2901 137.062 37.2701V36.6001C137.028 36.5901 136.98 36.5801 136.917 36.5701C136.853 36.5601 136.783 36.5551 136.707 36.5551C136.64 36.5551 136.572 36.5601 136.502 36.5701C136.435 36.5801 136.373 36.5984 136.317 36.6251C136.263 36.6517 136.22 36.6901 136.187 36.7401C136.153 36.7867 136.137 36.8467 136.137 36.9201C136.137 37.0634 136.182 37.1634 136.272 37.2201C136.362 37.2734 136.483 37.3001 136.637 37.3001ZM136.587 35.0451C136.787 35.0451 136.955 35.0701 137.092 35.1201C137.228 35.1701 137.337 35.2401 137.417 35.3301C137.5 35.4201 137.558 35.5301 137.592 35.6601C137.628 35.7867 137.647 35.9267 137.647 36.0801V37.6651C137.553 37.6851 137.412 37.7084 137.222 37.7351C137.035 37.7651 136.823 37.7801 136.587 37.7801C136.43 37.7801 136.287 37.7651 136.157 37.7351C136.027 37.7051 135.915 37.6567 135.822 37.5901C135.732 37.5234 135.66 37.4367 135.607 37.3301C135.557 37.2234 135.532 37.0917 135.532 36.9351C135.532 36.7851 135.56 36.6584 135.617 36.5551C135.677 36.4517 135.757 36.3684 135.857 36.3051C135.957 36.2384 136.072 36.1917 136.202 36.1651C136.335 36.1351 136.473 36.1201 136.617 36.1201C136.683 36.1201 136.753 36.1251 136.827 36.1351C136.9 36.1417 136.978 36.1551 137.062 36.1751V36.0751C137.062 36.0051 137.053 35.9384 137.037 35.8751C137.02 35.8117 136.99 35.7567 136.947 35.7101C136.907 35.6601 136.852 35.6217 136.782 35.5951C136.715 35.5684 136.63 35.5551 136.527 35.5551C136.387 35.5551 136.258 35.5651 136.142 35.5851C136.025 35.6051 135.93 35.6284 135.857 35.6551L135.782 35.1651C135.858 35.1384 135.97 35.1117 136.117 35.0851C136.263 35.0584 136.42 35.0451 136.587 35.0451Z" fill="#838383"/>
<path d="M138.998 36.0101C138.988 36.1501 138.978 36.2967 138.968 36.4501C138.958 36.6001 138.949 36.7501 138.943 36.9001C138.936 37.0501 138.929 37.1951 138.923 37.3351C138.916 37.4751 138.911 37.6051 138.908 37.7251H138.323C138.329 37.5317 138.339 37.3234 138.353 37.1001C138.366 36.8734 138.381 36.6451 138.398 36.4151C138.418 36.1817 138.438 35.9534 138.458 35.7301C138.478 35.5067 138.499 35.3001 138.523 35.1101H139.048C139.174 35.3134 139.303 35.5534 139.433 35.8301C139.563 36.1034 139.708 36.4151 139.868 36.7651C140.034 36.4084 140.186 36.0867 140.323 35.8001C140.459 35.5101 140.581 35.2801 140.688 35.1101H141.218C141.241 35.3001 141.263 35.5067 141.283 35.7301C141.306 35.9534 141.326 36.1817 141.343 36.4151C141.359 36.6451 141.374 36.8734 141.388 37.1001C141.401 37.3234 141.411 37.5317 141.418 37.7251H140.818C140.811 37.4517 140.799 37.1701 140.783 36.8801C140.769 36.5867 140.753 36.2967 140.733 36.0101C140.683 36.1101 140.628 36.2217 140.568 36.3451C140.511 36.4684 140.454 36.5934 140.398 36.7201C140.341 36.8467 140.286 36.9701 140.233 37.0901C140.179 37.2067 140.133 37.3101 140.093 37.4001H139.643C139.603 37.3101 139.554 37.2051 139.498 37.0851C139.444 36.9651 139.389 36.8417 139.333 36.7151C139.276 36.5884 139.218 36.4651 139.158 36.3451C139.101 36.2217 139.048 36.1101 138.998 36.0101Z" fill="#838383"/>
<path d="M145.308 37.7251H144.703V35.1101H145.308V37.7251ZM142.728 36.0751C142.778 36.0617 142.85 36.0501 142.943 36.0401C143.04 36.0301 143.133 36.0251 143.223 36.0251C143.366 36.0251 143.501 36.0417 143.628 36.0751C143.758 36.1084 143.87 36.1617 143.963 36.2351C144.06 36.3051 144.135 36.3967 144.188 36.5101C144.245 36.6201 144.273 36.7517 144.273 36.9051C144.273 37.0617 144.246 37.1951 144.193 37.3051C144.14 37.4151 144.065 37.5051 143.968 37.5751C143.871 37.6451 143.755 37.6967 143.618 37.7301C143.485 37.7634 143.336 37.7801 143.173 37.7801C142.983 37.7801 142.803 37.7701 142.633 37.7501C142.466 37.7301 142.296 37.7001 142.123 37.6601V35.1101H142.728V36.0751ZM143.158 37.3051C143.315 37.3051 143.438 37.2734 143.528 37.2101C143.621 37.1434 143.668 37.0384 143.668 36.8951C143.668 36.8217 143.653 36.7601 143.623 36.7101C143.593 36.6601 143.551 36.6201 143.498 36.5901C143.448 36.5567 143.39 36.5334 143.323 36.5201C143.26 36.5067 143.193 36.5001 143.123 36.5001C143.06 36.5001 142.99 36.5034 142.913 36.5101C142.84 36.5134 142.778 36.5217 142.728 36.5351V37.2801C142.771 37.2867 142.835 37.2934 142.918 37.3001C143.001 37.3034 143.081 37.3051 143.158 37.3051Z" fill="#838383"/>
<path d="M64.2016 27.725C62.9516 25.025 61.7432 22.2 60.5766 19.25C59.4266 16.3 58.3516 13.35 57.3516 10.4H60.8266C61.2266 11.5667 61.6349 12.7583 62.0516 13.975C62.4682 15.1917 62.8849 16.3917 63.3016 17.575C63.7182 18.7417 64.1349 19.875 64.5516 20.975C64.9682 22.075 65.3766 23.0833 65.7766 24C66.1599 23.0833 66.5599 22.0833 66.9766 21C67.3932 19.9 67.8099 18.7583 68.2266 17.575C68.6599 16.3917 69.0849 15.1917 69.5016 13.975C69.9182 12.7583 70.3182 11.5667 70.7016 10.4H74.0766C73.0599 13.35 71.9766 16.3 70.8266 19.25C69.6766 22.2 68.4766 25.025 67.2266 27.725H64.2016Z" fill="white"/>
<path d="M76.317 27.725V10.4H87.442V13.075H79.467V17.35H86.567V19.975H79.467V25.05H88.042V27.725H76.317Z" fill="white"/>
<path d="M95.7404 10.225C98.2404 10.225 100.149 10.6833 101.465 11.6C102.799 12.5167 103.465 13.9167 103.465 15.8C103.465 18.15 102.307 19.7417 99.9904 20.575C100.307 20.9583 100.665 21.425 101.065 21.975C101.465 22.525 101.874 23.125 102.29 23.775C102.707 24.4083 103.107 25.0667 103.49 25.75C103.874 26.4167 104.215 27.075 104.515 27.725H100.99C100.674 27.125 100.332 26.525 99.9654 25.925C99.5988 25.3083 99.2238 24.7167 98.8404 24.15C98.4738 23.5667 98.1071 23.025 97.7404 22.525C97.3738 22.0083 97.0321 21.55 96.7154 21.15C96.4821 21.1667 96.2821 21.175 96.1154 21.175C95.9488 21.175 95.7904 21.175 95.6404 21.175H94.1154V27.725H90.9654V10.65C91.7321 10.4833 92.5488 10.375 93.4154 10.325C94.2821 10.2583 95.0571 10.225 95.7404 10.225ZM95.9654 12.95C95.2988 12.95 94.6821 12.975 94.1154 13.025V18.625H95.4904C96.2571 18.625 96.9321 18.5833 97.5154 18.5C98.0988 18.4167 98.5821 18.2667 98.9654 18.05C99.3654 17.8333 99.6654 17.5417 99.8654 17.175C100.065 16.8083 100.165 16.3417 100.165 15.775C100.165 15.2417 100.065 14.7917 99.8654 14.425C99.6654 14.0583 99.3738 13.7667 98.9904 13.55C98.6238 13.3333 98.1821 13.1833 97.6654 13.1C97.1488 13 96.5821 12.95 95.9654 12.95Z" fill="white"/>
<path d="M111.157 25.375C112.29 25.375 113.115 25.1833 113.632 24.8C114.148 24.4167 114.407 23.875 114.407 23.175C114.407 22.7583 114.315 22.4 114.132 22.1C113.965 21.8 113.715 21.5333 113.382 21.3C113.065 21.05 112.673 20.825 112.207 20.625C111.74 20.4083 111.207 20.2 110.607 20C110.007 19.7833 109.423 19.55 108.857 19.3C108.307 19.0333 107.815 18.7083 107.382 18.325C106.965 17.9417 106.623 17.4833 106.357 16.95C106.107 16.4167 105.982 15.775 105.982 15.025C105.982 13.4583 106.523 12.2333 107.607 11.35C108.69 10.45 110.165 10 112.032 10C113.115 10 114.073 10.125 114.907 10.375C115.757 10.6083 116.423 10.8667 116.907 11.15L115.932 13.7C115.365 13.3833 114.74 13.1417 114.057 12.975C113.39 12.8083 112.698 12.725 111.982 12.725C111.132 12.725 110.465 12.9 109.982 13.25C109.515 13.6 109.282 14.0917 109.282 14.725C109.282 15.1083 109.357 15.4417 109.507 15.725C109.673 15.9917 109.898 16.2333 110.182 16.45C110.482 16.6667 110.823 16.8667 111.207 17.05C111.607 17.2333 112.04 17.4083 112.507 17.575C113.323 17.875 114.048 18.1833 114.682 18.5C115.332 18.8 115.873 19.1667 116.307 19.6C116.757 20.0167 117.098 20.5167 117.332 21.1C117.565 21.6667 117.682 22.3583 117.682 23.175C117.682 24.7417 117.123 25.9583 116.007 26.825C114.907 27.675 113.29 28.1 111.157 28.1C110.44 28.1 109.782 28.05 109.182 27.95C108.598 27.8667 108.073 27.7583 107.607 27.625C107.157 27.4917 106.765 27.3583 106.432 27.225C106.098 27.075 105.832 26.9417 105.632 26.825L106.557 24.25C107.007 24.5 107.615 24.75 108.382 25C109.148 25.25 110.073 25.375 111.157 25.375Z" fill="white"/>
<path d="M131.958 27.725C131.724 27.0417 131.483 26.3667 131.233 25.7C130.983 25.0333 130.741 24.35 130.508 23.65H123.208C122.974 24.35 122.733 25.0417 122.483 25.725C122.249 26.3917 122.016 27.0583 121.783 27.725H118.508C119.158 25.875 119.774 24.1667 120.358 22.6C120.941 21.0333 121.508 19.55 122.058 18.15C122.624 16.75 123.183 15.4167 123.733 14.15C124.283 12.8833 124.849 11.6333 125.433 10.4H128.408C128.991 11.6333 129.558 12.8833 130.108 14.15C130.658 15.4167 131.208 16.75 131.758 18.15C132.324 19.55 132.899 21.0333 133.483 22.6C134.083 24.1667 134.708 25.875 135.358 27.725H131.958ZM126.858 13.75C126.474 14.6333 126.033 15.7083 125.533 16.975C125.049 18.2417 124.541 19.6167 124.008 21.1H129.708C129.174 19.6167 128.658 18.2333 128.158 16.95C127.658 15.6667 127.224 14.6 126.858 13.75Z" fill="white"/>
<path d="M148.497 25V27.725H137.547V10.4H140.697V25H148.497Z" fill="white"/>
<defs>
<linearGradient id="paint0_linear" x1="19.3646" y1="40.1204" x2="19.3646" y2="-0.22166" gradientUnits="userSpaceOnUse">
<stop stop-color="#EF0F72"/>
<stop offset="1" stop-color="#FE6604"/>
</linearGradient>
</defs>
</svg>
