<svg width="19" height="19" viewBox="0 0 19 19" fill="none" xmlns="http://www.w3.org/2000/svg">
<rect width="5" height="5" fill="url(#paint0_linear)"/>
<rect y="7" width="5" height="5" fill="url(#paint1_linear)"/>
<rect y="14" width="5" height="5" fill="url(#paint2_linear)"/>
<rect x="7" width="5" height="5" fill="url(#paint3_linear)"/>
<rect x="7" y="7" width="5" height="5" fill="url(#paint4_linear)"/>
<rect x="7" y="14" width="5" height="5" fill="url(#paint5_linear)"/>
<rect x="14" width="5" height="5" fill="url(#paint6_linear)"/>
<rect x="14" y="7" width="5" height="5" fill="url(#paint7_linear)"/>
<rect x="14" y="14" width="5" height="5" fill="url(#paint8_linear)"/>
<defs>
<linearGradient id="paint0_linear" x1="0.14" y1="3.31081" x2="4.58132" y2="3.28712" gradientUnits="userSpaceOnUse">
<stop stop-color="#EE0979"/>
<stop offset="1" stop-color="#FF6A00"/>
</linearGradient>
<linearGradient id="paint1_linear" x1="0.14" y1="10.3108" x2="4.58132" y2="10.2871" gradientUnits="userSpaceOnUse">
<stop stop-color="#EE0979"/>
<stop offset="1" stop-color="#FF6A00"/>
</linearGradient>
<linearGradient id="paint2_linear" x1="0.14" y1="17.3108" x2="4.58132" y2="17.2871" gradientUnits="userSpaceOnUse">
<stop stop-color="#EE0979"/>
<stop offset="1" stop-color="#FF6A00"/>
</linearGradient>
<linearGradient id="paint3_linear" x1="7.14" y1="3.31081" x2="11.5813" y2="3.28712" gradientUnits="userSpaceOnUse">
<stop stop-color="#EE0979"/>
<stop offset="1" stop-color="#FF6A00"/>
</linearGradient>
<linearGradient id="paint4_linear" x1="7.14" y1="10.3108" x2="11.5813" y2="10.2871" gradientUnits="userSpaceOnUse">
<stop stop-color="#EE0979"/>
<stop offset="1" stop-color="#FF6A00"/>
</linearGradient>
<linearGradient id="paint5_linear" x1="7.14" y1="17.3108" x2="11.5813" y2="17.2871" gradientUnits="userSpaceOnUse">
<stop stop-color="#EE0979"/>
<stop offset="1" stop-color="#FF6A00"/>
</linearGradient>
<linearGradient id="paint6_linear" x1="14.14" y1="3.31081" x2="18.5813" y2="3.28712" gradientUnits="userSpaceOnUse">
<stop stop-color="#EE0979"/>
<stop offset="1" stop-color="#FF6A00"/>
</linearGradient>
<linearGradient id="paint7_linear" x1="14.14" y1="10.3108" x2="18.5813" y2="10.2871" gradientUnits="userSpaceOnUse">
<stop stop-color="#EE0979"/>
<stop offset="1" stop-color="#FF6A00"/>
</linearGradient>
<linearGradient id="paint8_linear" x1="14.14" y1="17.3108" x2="18.5813" y2="17.2871" gradientUnits="userSpaceOnUse">
<stop stop-color="#EE0979"/>
<stop offset="1" stop-color="#FF6A00"/>
</linearGradient>
</defs>
</svg>
