<svg width="57" height="38" viewBox="0 0 57 38" fill="none" xmlns="http://www.w3.org/2000/svg">
<g clip-path="url(#clip0)">
<path d="M11.062 28.114C9.33016 28.114 7.92142 29.5223 7.92142 31.254C7.92142 32.9864 9.33016 34.3946 11.062 34.3946C12.7938 34.3946 14.2025 32.9864 14.2025 31.254C14.2025 29.5223 12.7938 28.114 11.062 28.114ZM11.062 32.556C10.3439 32.556 9.76 31.9727 9.76 31.254C9.76 30.536 10.3439 29.9526 11.062 29.9526C11.7795 29.9526 12.3639 30.536 12.3639 31.254C12.3639 31.9727 11.7795 32.556 11.062 32.556Z" fill="#F53344"/>
<path d="M47.7062 28.114C45.9745 28.114 44.5656 29.5223 44.5656 31.254C44.5656 32.9864 45.9745 34.3946 47.7062 34.3946C49.438 34.3946 50.8468 32.9864 50.8468 31.254C50.8468 29.5223 49.4385 28.114 47.7062 28.114ZM47.7062 32.556C46.9886 32.556 46.4042 31.9727 46.4042 31.254C46.4042 30.536 46.9886 29.9526 47.7062 29.9526C48.4243 29.9526 49.0083 30.536 49.0083 31.254C49.0083 31.9727 48.4243 32.556 47.7062 32.556Z" fill="#F53344"/>
<path d="M39.5323 24.5377H18.3872C17.8791 24.5377 17.4677 24.9486 17.4677 25.4567C17.4677 25.965 17.8791 26.3763 18.3872 26.3763H39.5323C40.0399 26.3763 40.4518 25.965 40.4518 25.4567C40.4518 24.9486 40.0399 24.5377 39.5323 24.5377Z" fill="#F53344"/>
<path d="M25.7422 20.86V12.6046C25.7422 12.0964 25.3304 11.6855 24.8227 11.6855H4.59678C4.08913 11.6855 3.67775 12.0964 3.67775 12.6046V20.86C3.67775 21.3681 4.08913 21.7796 4.59678 21.7796H24.8227C25.3304 21.7796 25.7422 21.3681 25.7422 20.86ZM23.9031 19.941H5.51633V13.5241H23.9031V19.941Z" fill="#F53344"/>
<path d="M35.6273 13.4468C34.4153 12.311 32.8319 11.6855 31.17 11.6855H28.4997C27.9921 11.6855 27.5807 12.0964 27.5807 12.6046V20.86C27.5807 21.3681 27.9921 21.7796 28.4997 21.7796H42.2C42.5776 21.7796 42.9164 21.5486 43.0553 21.1977C43.1942 20.8469 43.1038 20.447 42.8286 20.1893L35.6273 13.4468ZM29.4193 19.941V13.5241H31.17C32.3631 13.5241 33.4999 13.9728 34.3701 14.7882L39.8726 19.941H29.4193Z" fill="#F53344"/>
<path d="M57.0001 28.7331C57.0001 26.7109 56.3772 24.8319 55.3156 23.2752C55.2599 23.1369 55.1673 23.0227 55.0553 22.9275C53.2825 20.5618 50.4654 19.0215 47.2885 19.0215H46.0618L37.9021 11.3584C36.2187 9.77868 34.0203 8.90857 31.7119 8.90857H4.73295C2.12317 8.90857 0 11.0317 0 13.6421V27.7231C0 27.8561 0.00999512 27.9866 0.0199903 28.1165C0.0163079 28.1502 0 28.1802 0 28.2149C0 28.3459 0.0289333 28.469 0.0783828 28.5821C0.488183 30.9793 2.57611 32.8116 5.08857 32.8116H5.1154C5.8077 35.4524 8.20758 37.4083 11.062 37.4083C13.9169 37.4083 16.3162 35.4524 17.0091 32.8116H41.7597C42.4525 35.4524 44.8523 37.4083 47.7068 37.4083C50.5891 37.4083 53.0084 35.414 53.6733 32.7348C55.605 32.3739 57.0001 30.7111 57.0001 28.7331ZM11.062 35.5697C8.68205 35.5697 6.74671 33.6344 6.74671 31.254C6.74671 28.874 8.68257 26.9387 11.062 26.9387C13.4414 26.9387 15.3777 28.874 15.3777 31.254C15.3777 33.6344 13.4414 35.5697 11.062 35.5697ZM47.7062 35.5697C45.3263 35.5697 43.3909 33.6344 43.3909 31.254C43.3909 28.874 45.3268 26.9387 47.7062 26.9387C50.0856 26.9387 52.022 28.874 52.022 31.254C52.022 33.6344 50.0861 35.5697 47.7062 35.5697ZM53.8364 30.771C53.5881 27.6031 50.9368 25.0996 47.7062 25.0996C44.4078 25.0996 41.7149 27.7099 41.5666 30.973H17.2022C17.0538 27.7104 14.3609 25.0996 11.062 25.0996C7.76937 25.0996 5.08015 27.701 4.92287 30.9562C3.71082 30.8942 2.6787 30.1703 2.17473 29.1345H2.9817C3.48935 29.1345 3.90073 28.7231 3.90073 28.2149C3.90073 27.7067 3.48935 27.2959 2.9817 27.2959H1.83858V13.6421C1.83858 12.0455 3.13689 10.7472 4.73295 10.7472H31.7119C33.551 10.7472 35.3023 11.4405 36.6431 12.6993L45.068 20.6108C45.2385 20.7712 45.4636 20.8601 45.6977 20.8601H47.2885C49.2139 20.8601 50.9783 21.5576 52.3482 22.7097C51.8673 22.7402 51.4839 23.1295 51.4839 23.6182C51.4839 24.1264 51.8957 24.5378 52.4034 24.5378H53.9384C54.7086 25.754 55.1615 27.1902 55.1615 28.7331C55.1615 29.639 54.6266 30.4191 53.8364 30.771Z" fill="#F53344"/>
<path d="M17.4679 2.47345H25.7423C26.2499 2.47345 26.6613 2.06206 26.6613 1.55389C26.6613 1.04572 26.2499 0.634338 25.7423 0.634338H17.4679C16.9602 0.634338 16.5484 1.04572 16.5484 1.55389C16.5484 2.06206 16.9602 2.47345 17.4679 2.47345Z" fill="#F53344"/>
<path d="M10.1129 5.23144H22.984C23.4917 5.23144 23.903 4.82006 23.903 4.31188C23.903 3.80371 23.4917 3.39233 22.984 3.39233H10.1129C9.60524 3.39233 9.19337 3.80371 9.19337 4.31188C9.19337 4.82006 9.60524 5.23144 10.1129 5.23144Z" fill="#F53344"/>
</g>
<defs>
<clipPath id="clip0">
<rect width="57" height="38" fill="white"/>
</clipPath>
</defs>
</svg>
