<svg width="47" height="47" viewBox="0 0 47 47" fill="none" xmlns="http://www.w3.org/2000/svg">
<path d="M26.4498 11.7987H19.0754C18.315 11.7987 17.6985 12.4152 17.6985 13.1757V23.5976H16.1257C15.3653 23.5976 14.7488 24.2141 14.7488 24.9746C14.7488 25.735 15.3653 26.3515 16.1257 26.3515H17.6985V29.4971H16.1257C15.3653 29.4971 14.7488 30.1137 14.7488 30.8741C14.7488 31.6345 15.3653 32.2511 16.1257 32.2511H17.6985V35.2987C17.6985 36.0592 18.315 36.6757 19.0754 36.6757C19.8359 36.6757 20.4524 36.0592 20.4524 35.2987V32.2511H26.4498C27.2103 32.2511 27.8268 31.6345 27.8268 30.8741C27.8268 30.1137 27.2103 29.4971 26.4498 29.4971H20.4524V26.3515H26.4498C30.4621 26.3515 33.7263 23.0873 33.7263 19.0751C33.7262 14.9637 30.3772 11.7987 26.4498 11.7987ZM26.4498 23.5976H20.4524V14.5526H26.4498C28.9285 14.5526 30.9724 16.5519 30.9724 19.0752C30.9723 21.5689 28.9436 23.5976 26.4498 23.5976Z" fill="#F53344"/>
<path d="M23.5 0C10.542 0 0 10.542 0 23.5C0 36.458 10.542 47 23.5 47C36.458 47 47 36.458 47 23.5C47 10.542 36.458 0 23.5 0ZM23.5 44.2461C12.0605 44.2461 2.75391 34.9394 2.75391 23.5C2.75391 12.0605 12.0605 2.75391 23.5 2.75391C34.9394 2.75391 44.2461 12.0605 44.2461 23.5C44.2461 34.9394 34.9394 44.2461 23.5 44.2461Z" fill="#F53344"/>
</svg>
