<svg width="41" height="49" viewBox="0 0 41 49" fill="none" xmlns="http://www.w3.org/2000/svg">
<path d="M37.0312 26.8906C37.0312 25.5359 35.5969 24.5 33.8438 24.5C32.0906 24.5 30.6562 25.5359 30.6562 26.8906V29.2812L26.7516 27.6078C27.7078 26.7313 28.3453 25.6156 28.7437 24.4203L30.8953 23.3047C31.6922 22.9062 32.25 22.1094 32.25 21.1531V19.7188C32.25 18.3641 31.2141 17.3281 29.8594 17.3281H29.5406L29.0625 17.8062V15.7344H30.6562V13.3438C30.6562 8.40313 27.3891 4.02031 22.6875 2.66562C22.5281 1.47031 21.4922 0.59375 20.2969 0.59375H18.7031C17.5078 0.59375 16.4719 1.47031 16.3125 2.66562C11.6109 4.02031 8.3438 8.40313 8.3438 13.3438V15.7344H9.9375V17.8062L9.4594 17.3281H9.1406C7.7859 17.3281 6.75 18.3641 6.75 19.7188V21.1531C6.75 22.0297 7.2281 22.9062 8.1047 23.3047L10.2562 24.4203C10.6547 25.6156 11.2922 26.7313 12.2484 27.6078L5.6344 30.4766C2.44688 31.9109 0.375 35.0187 0.375 38.525V48.4062H40.2188V25.2172L37.0312 29.6797V26.8906ZM32.25 36.2938V28.9625C33.2859 29.3609 34.4016 29.3609 35.4375 28.9625V31.8313L32.25 36.2938ZM33.8438 26.0938C34.8 26.0938 35.4375 26.5719 35.4375 26.8906C35.4375 27.2094 34.8 27.6875 33.8438 27.6875C32.8875 27.6875 32.25 27.2094 32.25 26.8906C32.25 26.5719 32.8875 26.0938 33.8438 26.0938ZM30.6562 33.0266L25.4766 36.8516C25.0781 37.0906 24.5203 37.25 24.0422 37.25H21.3328L21.5719 36.2938C21.6516 35.975 21.9703 35.6562 22.3687 35.6562H23.4844C24.7594 35.6562 25.9547 35.0188 26.7516 33.9828L29.3016 30.3969L30.7359 31.0344V33.0266H30.6562ZM20.0578 35.8953L19.5 37.9672L18.9422 35.8953C18.7031 34.7797 17.7469 34.0625 16.6313 34.0625H15.5156C14.7188 34.0625 14.0016 33.6641 13.6031 33.0266L11.2125 29.6797L13.6828 28.5641L15.9938 29.8391C18.1453 31.0344 20.6953 31.0344 22.8469 29.8391L25.1578 28.5641L27.6281 29.6797L25.2375 33.0266C24.7594 33.6641 24.0422 34.0625 23.325 34.0625H22.2094C21.2531 34.0625 20.2969 34.7797 20.0578 35.8953ZM17.6672 37.25H14.9578C14.4797 37.25 13.9219 37.0906 13.5234 36.7719L6.5906 31.7516L9.6984 30.3969L12.2484 33.9828C12.9656 35.0188 14.2406 35.6562 15.5156 35.6562H16.6313C17.0297 35.6562 17.3484 35.8953 17.4281 36.2938L17.6672 37.25ZM30.1781 19.0016C30.4969 19.0813 30.6562 19.4 30.6562 19.7188V21.1531C30.6562 21.4719 30.4969 21.7109 30.1781 21.8703L29.0625 22.4281V22.3484V20.1172L30.1781 19.0016ZM10.0969 14.1406C10.4156 13.1844 11.2922 12.5469 12.3281 12.5469H26.6719C27.7078 12.5469 28.5844 13.1844 28.9031 14.1406H10.0969ZM16.3125 4.33906V9.3594H17.9062V2.98438C17.9062 2.50625 18.225 2.1875 18.7031 2.1875H20.2969C20.775 2.1875 21.0938 2.50625 21.0938 2.98438V9.3594H22.6875V4.33906C25.9547 5.45469 28.3453 8.24375 28.9031 11.6703C28.2656 11.1922 27.4688 10.9531 26.6719 10.9531H12.3281C11.5312 10.9531 10.7344 11.1922 10.0969 11.6703C10.6547 8.24375 13.0453 5.45469 16.3125 4.33906ZM8.8219 21.8703C8.5828 21.7109 8.3438 21.4719 8.3438 21.1531V19.7188C8.3438 19.4 8.5828 19.0813 8.8219 19.0016L9.9375 20.1172V22.3484V22.4281L8.8219 21.8703ZM11.5312 22.3484V15.7344H27.4688V22.3484C27.4688 24.4203 26.3531 26.2531 24.6 27.2094L22.2094 28.4844C20.5359 29.3609 18.5438 29.3609 16.8703 28.4844L14.4797 27.2094C12.6469 26.2531 11.5312 24.3406 11.5312 22.3484ZM1.96875 38.4453C1.96875 36.0547 3.16406 33.9031 5.0766 32.5484L12.6469 38.0469C13.3641 38.525 14.1609 38.8438 14.9578 38.8438H18.7031V46.8125H16.3125V40.4375H10.575L9.9375 37.8875L8.3438 38.2062L8.9016 40.4375H7.5469V46.8125H1.96875V38.4453ZM14.7188 42.0312V43.625H9.1406V42.0312H14.7188ZM9.1406 45.2188H14.7188V46.8125H9.1406V45.2188ZM20.2969 46.8125V38.8438H24.0422C24.9188 38.8438 25.7156 38.6047 26.3531 38.0469L30.6562 34.9391V38.4453L24.6797 46.8125H20.2969ZM38.625 30.1578V46.8125H26.6719L37.0312 32.4688V32.3891L38.625 30.1578Z" fill="#F53344"/>
<path d="M37.0312 45.2188V34.6204L29.939 45.2188H37.0312ZM35.4374 43.6251H32.9671L35.4374 39.8797V43.6251Z" fill="#F53344"/>
</svg>
