<svg width="43" height="45" viewBox="0 0 43 45" fill="none" xmlns="http://www.w3.org/2000/svg">
<g clip-path="url(#clip0)">
<path d="M29.2282 13.6359C28.7637 13.6359 28.3867 14.0286 28.3867 14.5144C28.3867 14.9999 28.7637 15.3933 29.2282 15.3933C29.6937 15.3933 30.0697 14.9999 30.0697 14.5144C30.0697 14.0286 29.6937 13.6359 29.2282 13.6359Z" fill="#F53344"/>
<path d="M13.9389 29.605C13.4735 29.605 13.0974 29.9988 13.0974 30.4839C13.0974 30.97 13.4735 31.3628 13.9389 31.3628C14.4034 31.3628 14.7804 30.97 14.7804 30.4839C14.7804 29.9988 14.4034 29.605 13.9389 29.605Z" fill="#F53344"/>
<path d="M42.0785 5.40708C41.7945 5.33807 41.496 5.42768 41.2909 5.64397L37.8023 9.31649H36.1299L34.2888 7.32419V5.55299L37.7274 1.90793C37.9309 1.69232 38.0137 1.3823 37.9463 1.08739C37.8793 0.792816 37.6715 0.555237 37.3967 0.45842C36.5329 0.154235 35.6289 8.34195e-05 34.7096 8.34195e-05C31.9688 8.34195e-05 29.4789 1.33492 27.8781 3.66231C26.3798 5.84104 25.918 8.51106 26.5797 11.0664L20.3813 17.5405L10.0546 6.7299V4.60816C10.0546 4.29952 9.89948 4.01319 9.64605 3.85457L3.69614 0.125396C3.36481 -0.0823141 2.9411 -0.0277258 2.66828 0.257576L0.288447 2.74289C0.0156206 3.02819 -0.0366435 3.47074 0.161895 3.8168L3.73164 10.0313C3.8835 10.296 4.15732 10.4577 4.45282 10.458L6.48357 10.4587L16.8112 21.2693L10.6364 27.7186C8.18988 27.0278 5.63222 27.5109 3.54527 29.0768C1.31828 30.7477 0.0412598 33.3477 0.0412598 36.2104C0.0412598 37.1703 0.188849 38.1148 0.480082 39.0167C0.573106 39.3054 0.802872 39.5234 1.08687 39.5921C1.3712 39.6611 1.66934 39.5715 1.87478 39.3552L5.36301 35.683H7.04467L8.9607 37.6842V39.4407L5.44486 43.084C5.23777 43.2986 5.15198 43.61 5.21805 43.907C5.28379 44.2036 5.49252 44.4436 5.76896 44.5407C6.63247 44.8449 7.53674 44.9991 8.4558 44.9991C11.1966 44.9991 13.6855 43.6649 15.2857 41.3389C16.7849 39.1592 17.2474 36.4881 16.586 33.9328L21.5452 28.753L22.6812 30.0419L22.1599 30.586C21.8312 30.9294 21.8312 31.4859 22.1599 31.8292C22.4886 32.1722 23.0211 32.1722 23.3501 31.8292L23.8222 31.3362L34.4808 43.4287C34.4887 43.4376 34.4969 43.4462 34.5051 43.4548C36.4773 45.5148 39.6727 45.5154 41.6459 43.4545C43.6135 41.3983 43.6135 38.0526 41.6459 35.9965C41.6374 35.9875 41.6285 35.979 41.6196 35.9704L30.0239 24.8591L30.4906 24.3715C30.8193 24.0286 30.8193 23.472 30.4906 23.1287C30.1619 22.7854 29.6294 22.7854 29.3004 23.1287L28.7827 23.6698L27.5464 22.4846L32.5296 17.2799C33.2379 17.4776 33.969 17.5779 34.7096 17.5779C39.3496 17.5779 43.1241 13.6352 43.1241 8.78915C43.1241 7.82888 42.9765 6.88474 42.6853 5.98249C42.5923 5.69375 42.3625 5.47574 42.0785 5.40708ZM7.42827 8.9591C7.27049 8.79396 7.0565 8.70984 6.83298 8.70984L4.92978 8.70916L1.94315 3.50095L3.39373 1.98586L8.37166 5.10598V7.09382C8.37166 7.32659 8.46008 7.54976 8.61753 7.71455L19.1913 18.7836L18.0011 20.0265L7.42827 8.9591ZM28.8326 26.1033L40.4678 37.252C41.7675 38.6239 41.7636 40.8452 40.4557 42.212C39.1448 43.5812 37.0227 43.5853 35.7065 42.224L25.0131 30.092L28.8326 26.1033ZM27.5914 24.9137L23.8721 28.7977L22.7361 27.5088L26.3552 23.7285L27.5914 24.9137ZM34.7096 15.8201C33.9736 15.8201 33.2498 15.6968 32.5588 15.4537C32.2561 15.3476 31.9215 15.4294 31.6953 15.6652C27.4767 20.0714 18.3867 29.5653 15.0395 33.0617C14.8133 33.2979 14.7347 33.6474 14.837 33.964C15.5365 36.1334 15.2018 38.4474 13.9186 40.3134C12.6389 42.1739 10.6476 43.2413 8.4558 43.2413C8.2096 43.2413 7.96472 43.2272 7.72213 43.2001L10.3948 40.4301C10.5539 40.2653 10.6437 40.0408 10.6437 39.8063V37.32C10.6437 37.0869 10.5549 36.8634 10.3971 36.6986L7.98806 34.1823C7.83028 34.0176 7.61629 33.9249 7.3931 33.9249H5.01261C4.7881 33.9249 4.57313 34.0186 4.41502 34.1847L1.76335 36.9763C1.73705 36.7229 1.72391 36.4672 1.72391 36.21C1.72391 33.9204 2.74552 31.8409 4.52711 30.5043C6.3133 29.164 8.52911 28.8141 10.6065 29.5451C10.9093 29.6519 11.2439 29.5698 11.47 29.3336C11.5164 29.2855 28.1141 11.9494 28.1259 11.9371C28.3521 11.7009 28.4303 11.3517 28.3284 11.0352C27.6286 8.86571 27.9625 6.5524 29.2448 4.68782C30.5255 2.82563 32.5171 1.7579 34.7092 1.7579C34.963 1.7579 35.2151 1.77266 35.4649 1.8015L32.8478 4.57589C32.6926 4.74034 32.6058 4.96179 32.6058 5.1925V7.67884C32.6058 7.90681 32.6903 8.12551 32.8418 8.28927L35.1668 10.8055C35.3252 10.9771 35.5438 11.074 35.7723 11.074H38.1528C38.3769 11.074 38.5919 10.9806 38.75 10.8141L41.4017 8.02285C41.428 8.27623 41.4411 8.532 41.4411 8.78915C41.4411 12.666 38.4213 15.8201 34.7096 15.8201Z" fill="#F53344"/>
<path d="M26.2534 16.3788L15.7233 27.3772C15.395 27.7202 15.395 28.2767 15.7233 28.62C16.052 28.9633 16.5849 28.9633 16.9136 28.62L27.4437 17.6217C27.7724 17.2787 27.7724 16.7222 27.4437 16.3788C27.115 16.0355 26.5821 16.0355 26.2534 16.3788Z" fill="#F53344"/>
<path d="M36.8872 39.7263C37.2159 40.0686 37.7487 40.0686 38.0774 39.7243C38.4055 39.3806 38.4045 38.8241 38.0754 38.4815L30.4906 30.5847C30.1615 30.2421 29.6284 30.2431 29.3006 30.5868C28.9723 30.9308 28.9732 31.487 29.3023 31.8296L36.8872 39.7263Z" fill="#F53344"/>
</g>
<defs>
<clipPath id="clip0">
<rect width="43" height="45" fill="white"/>
</clipPath>
</defs>
</svg>
