<svg width="51" height="51" viewBox="0 0 51 51" fill="none" xmlns="http://www.w3.org/2000/svg">
<path d="M25.5 2.39062V0.796875C11.8782 0.796875 0.796875 11.8782 0.796875 25.5H2.39062C2.39062 12.758 12.758 2.39062 25.5 2.39062Z" fill="#F53344"/>
<path d="M48.6094 25.5C48.6094 38.242 38.242 48.6094 25.5 48.6094V50.2031C39.1218 50.2031 50.2031 39.1218 50.2031 25.5H48.6094Z" fill="#F53344"/>
<path d="M47.0156 25.5C47.0156 21.0216 45.653 16.7296 43.0759 13.0871L41.7746 14.0067C44.1604 17.3798 45.4219 21.3539 45.4219 25.5C45.4219 36.4849 36.4849 45.4219 25.5 45.4219C14.5151 45.4219 5.57812 36.4849 5.57812 25.5C5.57812 14.5151 14.5151 5.57812 25.5 5.57812C30.3171 5.57812 34.8458 7.26351 38.4492 10.3594H34.2656V11.9531H40.6406C41.0813 11.9531 41.4375 11.5969 41.4375 11.1562V4.78124H39.8438V9.47006C35.896 5.92397 30.8646 3.98438 25.5 3.98438C13.6361 3.98438 3.98438 13.6361 3.98438 25.5C3.98438 37.3639 13.6361 47.0156 25.5 47.0156C37.3639 47.0156 47.0156 37.3639 47.0156 25.5Z" fill="#F53344"/>
<path d="M25.5 9.5625C16.7121 9.5625 9.5625 16.7121 9.5625 25.5C9.5625 34.2879 16.7121 41.4375 25.5 41.4375C34.2879 41.4375 41.4375 34.2879 41.4375 25.5C41.4375 16.7121 34.2879 9.5625 25.5 9.5625ZM39.8031 26.2969C39.6174 29.6501 38.2811 32.6942 36.1741 35.0474L34.0321 32.9054L32.9054 34.0321L35.0474 36.1741C32.6942 38.2811 29.6501 39.6174 26.2969 39.8031V36.6562H24.7031V39.8031C21.3499 39.6174 18.3058 38.2811 15.9526 36.1741L18.0946 34.0321L16.9679 32.9054L14.8259 35.0474C12.7189 32.6942 11.3826 29.6501 11.1969 26.2969H14.3438V24.7031H11.1969C11.3826 21.3499 12.7189 18.3058 14.8259 15.9526L16.9679 18.0946L18.0946 16.9679L15.9526 14.8259C18.3058 12.7189 21.3499 11.3826 24.7031 11.1969V14.3438H26.2969V11.1969C29.6501 11.3826 32.6942 12.7189 35.0474 14.8259L32.9054 16.9679L34.0321 18.0946L36.1741 15.9526C38.2811 18.3058 39.6174 21.3499 39.8031 24.7031H36.6562V26.2969H39.8031Z" fill="#F53344"/>
<path d="M23.9062 20.7188H18.3281C17.8875 20.7188 17.5312 21.075 17.5312 21.5156V23.9062H19.125V22.3125H23.1094V24.178L18.0142 26.3614C17.7209 26.4865 17.5312 26.775 17.5312 27.0938V29.4844C17.5312 29.925 17.8875 30.2812 18.3281 30.2812H24.7031V28.6875H19.125V27.6189L24.2202 25.4355C24.5135 25.3103 24.7031 25.0219 24.7031 24.7031V21.5156C24.7031 21.075 24.3469 20.7188 23.9062 20.7188Z" fill="#F53344"/>
<path d="M31.875 25.5H27.8906V20.7188H26.2969V26.2969C26.2969 26.7375 26.6531 27.0938 27.0938 27.0938H31.875V30.2812H33.4688V20.7188H31.875V25.5Z" fill="#F53344"/>
</svg>
