<svg width="57" height="45" viewBox="0 0 57 45" fill="none" xmlns="http://www.w3.org/2000/svg">
<path d="M34.5801 39.5459C31.5975 41.9497 28.1087 43.5154 24.468 44.0839C20.8272 44.6525 17.1643 44.2036 13.8511 42.7829C10.5379 41.3622 7.6925 39.0203 5.6039 35.995C4.6541 34.6193 3.87621 33.1246 3.28217 31.5452M3.90351 14.2976C5.4757 10.7329 7.8933 7.61558 10.9107 5.26228C13.9281 2.90887 17.4379 1.40324 21.0836 0.898271C24.7293 0.393291 28.3811 0.906961 31.668 2.3871" stroke="#F53344"/>
<path d="M19.5872 21.9333C20.5209 22.0804 21.2364 22.4186 21.7337 22.948C22.2311 23.4677 22.4797 24.1147 22.4797 24.8892C22.4797 25.4873 22.3173 26.0412 21.9925 26.551C21.6678 27.051 21.1705 27.4529 20.5006 27.7569C19.8409 28.0608 19.029 28.2128 18.0648 28.2128C17.3137 28.2128 16.5728 28.1196 15.8421 27.9333C15.1215 27.7373 14.5075 27.4628 14 27.1098L14.9591 25.2863C15.3651 25.5804 15.8319 25.8108 16.3597 25.9775C16.8976 26.1343 17.4457 26.2128 18.0039 26.2128C18.623 26.2128 19.1102 26.1 19.4654 25.8745C19.8206 25.6392 19.9982 25.3108 19.9982 24.8892C19.9982 24.0461 19.3334 23.6245 18.0039 23.6245H16.8773V22.051L19.0696 19.6539H14.5328V17.7422H21.9925V19.2863L19.5872 21.9333Z" fill="#F53344"/>
<path d="M37.6579 26.1539V29.7422H35.4505V28.0363H29.6958V29.7422H27.4884V26.1539H27.8233C28.3308 26.1441 28.6809 25.8549 28.8737 25.2863C29.0666 24.7177 29.1884 23.9088 29.2391 22.8598L29.3457 20.1245H36.4857V26.1539H37.6579ZM31.3857 23.0216C31.3552 23.8255 31.2893 24.4824 31.1878 24.9922C31.0964 25.502 30.9188 25.8892 30.6549 26.1539H34.1108V22.0069H31.4314L31.3857 23.0216Z" fill="#F53344"/>
<path d="M39.1525 20.1245H41.5122V23.2128H45.0746V20.1245H47.4495V28.0363H45.0746V25.0804H41.5122V28.0363H39.1525V20.1245Z" fill="#F53344"/>
<path d="M57 20.1245V28.0363H54.8839V25.7716H53.1331L51.5803 28.0363H49.0531L50.9257 25.448C50.3573 25.2324 49.9209 24.9235 49.6164 24.5216C49.3221 24.1098 49.1749 23.6147 49.1749 23.0363C49.1749 22.1049 49.52 21.3892 50.2101 20.8892C50.9104 20.3794 51.8695 20.1245 53.0875 20.1245H57ZM53.1331 21.9922C52.6257 21.9922 52.24 22.0804 51.9761 22.2569C51.7224 22.4333 51.5955 22.7177 51.5955 23.1098C51.5955 23.502 51.7173 23.7912 51.9609 23.9775C52.2146 24.1539 52.5952 24.2422 53.1027 24.2422H54.8839V21.9922H53.1331Z" fill="#F53344"/>
<path d="M2.44922 24.4239C3.55379 24.4239 4.44922 23.5285 4.44922 22.4239C4.44922 21.3193 3.55379 20.4239 2.44922 20.4239C1.34465 20.4239 0.449219 21.3193 0.449219 22.4239C0.449219 23.5285 1.34465 24.4239 2.44922 24.4239Z" fill="#F53344"/>
<path d="M2.44922 24.4239C3.55379 24.4239 4.44922 23.5285 4.44922 22.4239C4.44922 21.3193 3.55379 20.4239 2.44922 20.4239C1.34465 20.4239 0.449219 21.3193 0.449219 22.4239C0.449219 23.5285 1.34465 24.4239 2.44922 24.4239Z" fill="#F53344"/>
</svg>
