<svg width="45" height="45" viewBox="0 0 45 45" fill="none" xmlns="http://www.w3.org/2000/svg">
<path d="M24.6766 23.6152H23.225V25.0464H21.7734V26.4777H23.225V27.9089H24.6766V26.4777H26.1282V25.0464H24.6766V23.6152Z" fill="#F53344"/>
<path d="M45 13.5967V6.44054H41.371V3.74685L43.2712 0H35.1158L37.0161 3.74685V6.44054H35.1609C34.6573 5.589 33.7312 5.00931 32.6613 5.00931H21.0484C19.4472 5.00931 18.1452 6.29308 18.1452 7.87177H14.5161V5.00931H3.62903C1.6281 5.00931 0 6.61455 0 8.58739V9.303H7.98387V10.7342H0V11.4499C0 13.4227 1.6281 15.0279 3.62903 15.0279H14.5161V12.1655H18.1452C18.1452 13.7442 19.4472 15.0279 21.0484 15.0279H21.513L19.1105 22.6093C18.5017 23.5137 18.1452 24.5972 18.1452 25.7622C18.1452 28.9189 20.75 31.4871 23.9516 31.4871C24.2383 31.4871 24.5183 31.4598 24.7944 31.4196L25.9692 37.212H24.9546L23.5029 40.0745H21.7742V44.3682H45V40.0745H43.2712L41.8196 37.212H40.6452V31.7977L29.8669 25.4215L32.5015 15.0279H32.6613C33.7312 15.0279 34.6573 14.4482 35.1609 13.5967H37.0161V15.5748L35.1158 19.3217H43.2712L41.371 15.5748V13.5967H45ZM1.57565 7.87177C1.87547 7.03875 2.68244 6.44054 3.62903 6.44054H13.0645V7.87177H1.57565ZM13.0645 13.5967H3.62903C2.68244 13.5967 1.87547 12.9985 1.57565 12.1655H13.0645V13.5967ZM14.5161 10.7342H9.43548V9.303H18.1452V10.7342H14.5161ZM19.5968 25.7622C19.5968 23.3942 21.5499 21.4685 23.9516 21.4685C26.3534 21.4685 28.3065 23.3942 28.3065 25.7622C28.3065 28.1302 26.3534 30.0559 23.9516 30.0559C21.5499 30.0559 19.5968 28.1302 19.5968 25.7622ZM29.6305 26.9509L34.4244 29.7868L26.6603 33.3198L26.1981 31.0405C27.9283 30.3221 29.2325 28.8001 29.6305 26.9509ZM35.8264 30.6163L38.348 32.1084L27.3882 36.9108L26.9527 34.7632L35.8686 30.7064L35.8264 30.6163ZM43.5484 42.9369H23.2258V41.5057H43.5484V42.9369ZM41.6481 40.0745H25.1261L25.8519 38.6432H40.9223L41.6481 40.0745ZM30.2748 37.212L39.1936 33.3041V37.212H30.2748ZM28.9989 22.9434C27.9995 21.211 26.1138 20.0372 23.9516 20.0372C22.9696 20.0372 22.045 20.2804 21.2334 20.7071L23.0334 15.0279H31.0066L28.9989 22.9434ZM34.1129 12.1655C34.1129 12.9548 33.4619 13.5967 32.6613 13.5967H21.0484C20.2478 13.5967 19.5968 12.9548 19.5968 12.1655V7.87177C19.5968 7.08243 20.2478 6.44054 21.0484 6.44054H32.6613C33.4619 6.44054 34.1129 7.08243 34.1129 7.87177V12.1655ZM40.9223 1.43123L40.1965 2.86246H38.1906L37.4648 1.43123H40.9223ZM38.4677 4.29369H39.9194V6.44054H38.4677V4.29369ZM43.5484 7.87177V9.303H35.5645V7.87177H43.5484ZM35.5645 10.7342H43.5484V12.1655H35.5645V10.7342ZM37.4648 17.8904L38.1906 16.4591H40.1965L40.9223 17.8904H37.4648ZM39.9194 15.0279H38.4677V13.5967H39.9194V15.0279Z" fill="#F53344"/>
<path d="M23.9508 7.87183C22.7504 7.87183 21.7734 8.83515 21.7734 10.0186C21.7734 11.2021 22.7504 12.1654 23.9508 12.1654C25.1511 12.1654 26.1282 11.2021 26.1282 10.0186C26.1282 8.83515 25.1511 7.87183 23.9508 7.87183ZM23.9508 10.7342C23.5503 10.7342 23.225 10.4127 23.225 10.0186C23.225 9.62447 23.5503 9.30302 23.9508 9.30302C24.3513 9.30302 24.6766 9.62447 24.6766 10.0186C24.6766 10.4127 24.3513 10.7342 23.9508 10.7342Z" fill="#F53344"/>
<path d="M29.7575 7.87183C28.5571 7.87183 27.5801 8.83515 27.5801 10.0186C27.5801 11.2021 28.5571 12.1654 29.7575 12.1654C30.9578 12.1654 31.9349 11.2021 31.9349 10.0186C31.9349 8.83515 30.9578 7.87183 29.7575 7.87183ZM29.7575 10.7342C29.357 10.7342 29.0317 10.4127 29.0317 10.0186C29.0317 9.62447 29.357 9.30302 29.7575 9.30302C30.158 9.30302 30.4833 9.62447 30.4833 10.0186C30.4833 10.4127 30.158 10.7342 29.7575 10.7342Z" fill="#F53344"/>
<path d="M15.1898 32.5699L16.364 31.183L13.3728 28.2332L11.9662 29.3915C11.6505 29.235 11.3241 29.1019 10.9881 28.9925L10.8247 27.1934H6.59463L6.43055 28.9932C6.09458 29.1025 5.76782 29.2357 5.45241 29.3926L4.0458 28.2339L1.05469 31.1837L2.22881 32.5706C2.07004 32.8812 1.93501 33.203 1.82408 33.5343L0 33.6954V37.866L1.8255 38.0278C1.93572 38.3584 2.07145 38.6812 2.23058 38.9915L1.05611 40.3784L4.04722 43.3282L5.45383 42.1699C5.76959 42.3264 6.09599 42.4595 6.43196 42.5689L6.59463 44.368H10.8247L10.9888 42.5682C11.3248 42.4589 11.6515 42.3257 11.9669 42.1688L13.3736 43.3275L16.3647 40.3777L15.1905 38.9908C15.3493 38.6802 15.4843 38.3584 15.5953 38.0272L17.4194 37.866V33.6954L15.5939 33.5336C15.4836 33.2023 15.3479 32.8802 15.1898 32.5699ZM15.9677 36.5578L14.4587 36.6916L14.3326 37.184C14.1954 37.7214 13.9799 38.2346 13.6914 38.7089L13.4274 39.145L14.3992 40.2921L13.2853 41.391L12.1211 40.4322L11.6795 40.6925C11.1993 40.9759 10.6787 41.1887 10.1322 41.3246L9.63288 41.449L9.49786 42.9369H7.9215L7.78576 41.449L7.28642 41.3246C6.73994 41.1887 6.21933 40.9759 5.73912 40.6925L5.29825 40.4322L4.13405 41.3903L3.02018 40.2914L3.99194 39.145L3.72791 38.7089C3.44049 38.2346 3.22466 37.7214 3.0868 37.184L2.96064 36.6916L1.45161 36.5578V35.0036L2.96064 34.8698L3.0868 34.3774C3.22396 33.84 3.43943 33.3268 3.72791 32.8526L3.99194 32.4164L3.02018 31.2693L4.13405 30.1704L5.29825 31.1292L5.73983 30.8689C6.22003 30.5855 6.74064 30.3727 7.28713 30.2368L7.78647 30.1124L7.9215 28.6246H9.49786L9.63359 30.1124L10.1329 30.2368C10.6794 30.3727 11.2 30.5855 11.6802 30.8689L12.1211 31.1292L13.2853 30.1711L14.3992 31.27L13.4274 32.4164L13.6914 32.8526C13.9789 33.3268 14.1947 33.84 14.3326 34.3774L14.4587 34.8698L15.9677 35.0036V36.5578Z" fill="#F53344"/>
<path d="M8.71031 31.4872C6.30855 31.4872 4.35547 33.4127 4.35547 35.7808C4.35547 38.1488 6.30855 40.0745 8.71031 40.0745C11.112 40.0745 13.0651 38.1488 13.0651 35.7808C13.0651 33.4127 11.112 31.4872 8.71031 31.4872ZM8.71031 38.6432C7.10914 38.6432 5.80708 37.3594 5.80708 35.7808C5.80708 34.2021 7.10914 32.9183 8.71031 32.9183C10.3114 32.9183 11.6135 34.2021 11.6135 35.7808C11.6135 37.3594 10.3114 38.6432 8.71031 38.6432Z" fill="#F53344"/>
<path d="M7.98438 16.4591H9.43597V17.8903H7.98438V16.4591Z" fill="#F53344"/>
<path d="M7.98438 19.3217H9.43597V20.7528H7.98438V19.3217Z" fill="#F53344"/>
<path d="M7.98438 22.1841H9.43597V23.6152H7.98438V22.1841Z" fill="#F53344"/>
</svg>
