<svg width="47" height="47" viewBox="0 0 47 47" fill="none" xmlns="http://www.w3.org/2000/svg">
<path d="M46.1995 4.1214C46.6417 4.1214 47 3.76293 47 3.32084V0.800559C47 0.358466 46.6418 0 46.1995 0H9.97219C9.5301 0 9.17163 0.358466 9.17163 0.800559V37.0277C9.17163 37.4698 9.5301 37.8282 9.97219 37.8282H46.1993C46.6415 37.8282 46.9999 37.4698 46.9999 37.0277V5.98928C46.9999 5.54718 46.6416 5.18872 46.1993 5.18872C45.7571 5.18872 45.3987 5.54718 45.3987 5.98928V19.7052H42.2195C41.7773 19.7052 41.4189 20.0636 41.4189 20.5057C41.4189 20.9478 41.7772 21.3063 42.2195 21.3063H45.3987V36.2272H22.5263V32.3537C22.5263 31.9116 22.1678 31.5531 21.7257 31.5531C21.2837 31.5531 20.9252 31.9116 20.9252 32.3537V36.2272H10.7727V1.60112H20.9253V26.5898C20.9253 27.0319 21.2837 27.3904 21.7258 27.3904C22.1679 27.3904 22.5264 27.0319 22.5264 26.5898V21.3063H36.7759C37.2181 21.3063 37.5765 20.9478 37.5765 20.5057C37.5765 20.0636 37.2182 19.7052 36.7759 19.7052H22.5263V1.60112H45.3989V3.32084C45.3989 3.76293 45.7572 4.1214 46.1995 4.1214Z" fill="#F53344"/>
<path d="M6.76371 4.62022L4.12207 0.377468C3.97593 0.142744 3.7189 0 3.4425 0C3.16601 0 2.90907 0.142744 2.76293 0.377468L0.121208 4.62022C-0.0324601 4.86706 -0.0402628 5.17779 0.100921 5.43198C0.242104 5.68616 0.510058 5.84387 0.800779 5.84387H2.64194V9.19151C2.64194 9.63361 3.00041 9.99207 3.4425 9.99207C3.8846 9.99207 4.24306 9.63361 4.24306 9.19151V5.84387H6.08423C6.37495 5.84387 6.6429 5.68625 6.78409 5.43198C6.92527 5.1777 6.91747 4.86697 6.76371 4.62022ZM2.24226 4.24275L3.44241 2.3152L4.64256 4.24275H2.24226Z" fill="#F53344"/>
<path d="M6.78375 32.3963C6.64257 32.1421 6.37461 31.9845 6.08389 31.9845H4.24273V11.3262C4.24273 10.8841 3.88426 10.5256 3.44217 10.5256C3.00008 10.5256 2.64161 10.8841 2.64161 11.3262V31.9844H0.800535C0.509814 31.9844 0.24186 32.142 0.100676 32.3963C-0.0405069 32.6506 -0.0327042 32.9613 0.120964 33.2081L2.7626 37.4508C2.90874 37.6855 3.16568 37.8283 3.44217 37.8283C3.71875 37.8283 3.97569 37.6855 4.12174 37.4508L6.76337 33.2081C6.91722 32.9611 6.92503 32.6505 6.78375 32.3963ZM3.44226 35.5132L2.24202 33.5856H4.64232L3.44226 35.5132Z" fill="#F53344"/>
<path d="M46.6226 42.878L42.3798 40.2364C42.133 40.0827 41.8223 40.075 41.5681 40.2161C41.3139 40.3573 41.1563 40.6253 41.1563 40.916V42.7571H15.0155V40.916C15.0155 40.6253 14.8579 40.3573 14.6037 40.2161C14.3495 40.075 14.0389 40.0827 13.7919 40.2364L9.5491 42.878C9.31437 43.0242 9.17163 43.2811 9.17163 43.5576C9.17163 43.8341 9.31437 44.091 9.5491 44.2372L13.7919 46.8788C13.9211 46.9593 14.068 46.9997 14.2149 46.9997C14.3487 46.9997 14.4825 46.9663 14.6036 46.8991C14.8579 46.7579 15.0155 46.49 15.0155 46.1992V44.3581H41.1562V46.1992C41.1562 46.49 41.314 46.7579 41.568 46.8991C41.6891 46.9664 41.823 46.9997 41.9567 46.9997C42.1037 46.9997 42.2506 46.9592 42.3798 46.8788L46.6226 44.2372C46.8573 44.091 47 43.8341 47 43.5576C47 43.281 46.8573 43.0242 46.6226 42.878ZM13.4144 44.7578L11.4868 43.5576L13.4144 42.3575V44.7578ZM42.7573 44.7578V42.3575L44.685 43.5576L42.7573 44.7578Z" fill="#F53344"/>
</svg>
